<svg xmlns="http://www.w3.org/2000/svg" width="23.5" height="21.634" viewBox="0 0 23.5 21.634">
  <g id="apiary_1_" data-name="apiary (1)" transform="translate(0 -0.001)">
    <g id="Group_100" data-name="Group 100" transform="translate(0.559 0.188)">
      <g id="Group_70" data-name="Group 70" transform="translate(0 11.173)">
        <path id="Path_58" data-name="Path 58" d="M3.735,60.928l.561.06-.117,1.14-.671-.071A.57.57,0,0,1,3,61.488c0-.021,0-.039,0-.06a.576.576,0,0,1,.1-.274.566.566,0,0,1,.517-.237Z" transform="translate(-3 -60.914)" fill="#655f68"/>
      </g>
      <g id="Group_71" data-name="Group 71" transform="translate(20.918 12.625)">
        <path id="Path_59" data-name="Path 59" d="M116.581,69.265c0,.021,0,.043,0,.063a.627.627,0,0,1-.558.629l-.74.078-.127-1.253v0l.617-.063.123-.013a.626.626,0,0,1,.681.561Z" transform="translate(-115.16 -68.701)" fill="#655f68"/>
      </g>
      <g id="Group_72" data-name="Group 72" transform="translate(18.274 1.707)">
        <path id="Path_60" data-name="Path 60" d="M102.3,10.485a.626.626,0,0,1,.082.311v.021a.638.638,0,0,1-.638.638l-.767,0v-1.3h.765A.633.633,0,0,1,102.3,10.485Z" transform="translate(-100.98 -10.159)" fill="#655f68"/>
      </g>
      <g id="Group_73" data-name="Group 73" transform="translate(1.179 11.247)">
        <path id="Path_61" data-name="Path 61" d="M10.055,61.557a.6.6,0,0,1,.112.345c0,.021,0,.039,0,.06a.565.565,0,0,1-.617.511l-.226-.024.117-1.14.112.013.112.011A.57.57,0,0,1,10.055,61.557Z" transform="translate(-9.32 -61.309)" fill="#ef9d26"/>
      </g>
      <g id="Group_74" data-name="Group 74" transform="translate(20.114 12.705)">
        <path id="Path_62" data-name="Path 62" d="M111.529,69.142l.125-.013v0l.127,1.253-.246.026a.623.623,0,0,1-.681-.563c0-.022,0-.045,0-.065a.64.64,0,0,1,.125-.379.628.628,0,0,1,.433-.248Z" transform="translate(-110.85 -69.129)" fill="#ef9d26"/>
      </g>
      <g id="Group_75" data-name="Group 75" transform="translate(17.38 1.707)">
        <path id="Path_63" data-name="Path 63" d="M97.083,10.159v1.3h-.256a.638.638,0,0,1-.638-.638V10.8a.642.642,0,0,1,.638-.64h.256Z" transform="translate(-96.19 -10.159)" fill="#ef9d26"/>
      </g>
      <g id="Group_76" data-name="Group 76" transform="translate(1.408 9.956)">
        <path id="Path_64" data-name="Path 64" d="M11.356,54.725a1.1,1.1,0,0,1-.3,1.2.57.57,0,0,0-.394-.224l-.112-.011a1.111,1.111,0,0,0,.239-1.235l-.006-.011a.385.385,0,0,0-.028-.047.527.527,0,0,1,.595.313Z" transform="translate(-10.55 -54.39)" fill="#d6eae8"/>
      </g>
      <g id="Group_77" data-name="Group 77" transform="translate(19.829 11.287)">
        <path id="Path_65" data-name="Path 65" d="M110.285,62.954l-.121.013a.628.628,0,0,0-.433.248,1.213,1.213,0,0,1-.33-1.324l.006-.011a.575.575,0,0,1,.655-.345h0a.487.487,0,0,0-.032.052.039.039,0,0,0-.007.011A1.215,1.215,0,0,0,110.285,62.954Z" transform="translate(-109.321 -61.522)" fill="#d6eae8"/>
      </g>
      <g id="Group_78" data-name="Group 78" transform="translate(17.218 0.199)">
        <path id="Path_66" data-name="Path 66" d="M96.246,3.582H96.12a.634.634,0,0,0-.468.207,1.251,1.251,0,0,1-.2-1.391l.007-.011a.591.591,0,0,1,.7-.283l0,0a.478.478,0,0,0-.037.048l-.007.011A1.254,1.254,0,0,0,96.246,3.582Z" transform="translate(-95.319 -2.074)" fill="#d6eae8"/>
      </g>
      <g id="Group_79" data-name="Group 79" transform="translate(0.559 9.721)">
        <path id="Path_67" data-name="Path 67" d="M7.086,53.431a1.111,1.111,0,0,1-.239,1.235l-.112-.013-.561-.06a1.333,1.333,0,0,1-.123-1.018c0-.007.006-.017.007-.024a.552.552,0,0,1,.994-.177.385.385,0,0,1,.028.047l.006.011Z" transform="translate(-5.999 -53.127)" fill="#b8d3cf"/>
      </g>
      <g id="Group_80" data-name="Group 80" transform="translate(20.425 11.028)">
        <path id="Path_68" data-name="Path 68" d="M113.761,60.628a1.473,1.473,0,0,1-.134,1.121l-.617.063-.125.013a1.215,1.215,0,0,1-.261-1.356.039.039,0,0,1,.007-.011.485.485,0,0,1,.032-.052.605.605,0,0,1,1.091.194C113.756,60.61,113.759,60.619,113.761,60.628Z" transform="translate(-112.517 -60.135)" fill="#b8d3cf"/>
      </g>
      <g id="Group_81" data-name="Group 81" transform="translate(17.853)">
        <path id="Path_69" data-name="Path 69" d="M100.037,1.576a1.518,1.518,0,0,1-.254,1.136h-.767a1.254,1.254,0,0,1-.129-1.417l.007-.011a.477.477,0,0,1,.037-.048.624.624,0,0,1,1.1.313l.006.028Z" transform="translate(-98.724 -1.005)" fill="#b8d3cf"/>
      </g>
      <g id="Group_82" data-name="Group 82" transform="translate(9.286 16.361)">
        <path id="Path_70" data-name="Path 70" d="M56.522,88.729V90.15H52.79V88.729h3.732Z" transform="translate(-52.79 -88.729)" fill="#f9b132"/>
      </g>
      <g id="Group_83" data-name="Group 83" transform="translate(4.635 8.086)">
        <path id="Path_71" data-name="Path 71" d="M28.959,45.026V46.82l-1.108.666V44.358Z" transform="translate(-27.851 -44.358)" fill="#e58e1a"/>
      </g>
      <g id="Group_84" data-name="Group 84" transform="translate(7.223 6.243)">
        <path id="Path_72" data-name="Path 72" d="M44.718,34.479v1.626l-1.494.9-1.494-.9V34.479Z" transform="translate(-41.73 -34.479)" fill="#ef9d26"/>
      </g>
      <g id="Group_85" data-name="Group 85" transform="translate(3.079 16.346)">
        <path id="Path_73" data-name="Path 73" d="M35.685,88.649v4.9H19.51v-4.9h6.222V90.07h3.732V88.649Z" transform="translate(-19.51 -88.649)" fill="#543927"/>
      </g>
      <g id="Group_86" data-name="Group 86" transform="translate(17.684 6.243)">
        <path id="Path_74" data-name="Path 74" d="M99.375,34.479V44.6H97.82V34.479Z" transform="translate(-97.82 -34.479)" fill="#604533"/>
      </g>
      <g id="Group_87" data-name="Group 87" transform="translate(4.635 12.394)">
        <path id="Path_75" data-name="Path 75" d="M40.916,67.458V71.41H27.851V67.458H40.916Z" transform="translate(-27.851 -67.458)" fill="#3f2313"/>
      </g>
      <g id="Group_88" data-name="Group 88" transform="translate(4.635 10.547)">
        <path id="Path_76" data-name="Path 76" d="M40.916,57.558V59.4H27.851V58.224l1.108-.666,1.5.9,1.494-.9,1.494.9,1.5-.9,1.494.9,1.494-.9,1.5.9Z" transform="translate(-27.851 -57.558)" fill="#ffc05a"/>
      </g>
      <g id="Group_89" data-name="Group 89" transform="translate(14.695 7.869)">
        <path id="Path_77" data-name="Path 77" d="M84.78,44.1v1.794l-1.494.9-1.5-.9V44.1l1.5-.9Z" transform="translate(-81.79 -43.199)" fill="#e58e1a"/>
      </g>
      <g id="Group_90" data-name="Group 90" transform="translate(16.19 6.243)">
        <path id="Path_78" data-name="Path 78" d="M91.3,34.479V37l-1.494-.9V34.479Z" transform="translate(-89.81 -34.479)" fill="#d87c0e"/>
      </g>
      <g id="Group_91" data-name="Group 91" transform="translate(13.201 6.243)">
        <path id="Path_79" data-name="Path 79" d="M76.77,34.479v1.626l-1.5.9-1.494-.9V34.479Z" transform="translate(-73.78 -34.479)" fill="#ef9d26"/>
      </g>
      <g id="Group_92" data-name="Group 92" transform="translate(11.707 7.869)">
        <path id="Path_80" data-name="Path 80" d="M68.758,44.1v1.794l-1.494.9-1.494-.9V44.1l1.494-.9Z" transform="translate(-65.77 -43.199)" fill="#f9b132"/>
      </g>
      <g id="Group_93" data-name="Group 93" transform="translate(10.211 6.243)">
        <path id="Path_81" data-name="Path 81" d="M60.74,34.479v1.626l-1.494.9-1.5-.9V34.479h2.99Z" transform="translate(-57.75 -34.479)" fill="#d87c0e"/>
      </g>
      <g id="Group_94" data-name="Group 94" transform="translate(8.717 7.869)">
        <path id="Path_82" data-name="Path 82" d="M52.73,44.1v1.794l-1.5.9-1.494-.9V44.1l1.494-.9Z" transform="translate(-49.74 -43.199)" fill="#e58e1a"/>
      </g>
      <g id="Group_95" data-name="Group 95" transform="translate(5.743 7.854)">
        <path id="Path_83" data-name="Path 83" d="M36.781,44.017v1.794l-1.494.9-1.5-.9V44.017l1.5-.9Z" transform="translate(-33.791 -43.118)" fill="#f9b132"/>
      </g>
      <g id="Group_96" data-name="Group 96" transform="translate(4.635 6.228)">
        <path id="Path_84" data-name="Path 84" d="M30.455,34.4v1.626l-1.5.9-1.108-.668V34.4Z" transform="translate(-27.851 -34.398)" fill="#d87c0e"/>
      </g>
      <g id="Group_97" data-name="Group 97" transform="translate(3.079 6.228)">
        <path id="Path_85" data-name="Path 85" d="M19.51,34.4h1.555V44.517H19.51Z" transform="translate(-19.51 -34.399)" fill="#604533"/>
      </g>
      <g id="Group_98" data-name="Group 98" transform="translate(0.859 0.238)">
        <path id="Path_86" data-name="Path 86" d="M27.695,7.811a.843.843,0,0,1,.468.949.8.8,0,0,1-.468.474l-1.7-.962Q21.944,5.986,17.9,3.7L9.8,8.271l-1.7.962a.8.8,0,0,1-.466-.474A.841.841,0,0,1,8.1,7.811l9.8-5.532Z" transform="translate(-7.604 -2.279)" fill="#604533"/>
      </g>
      <g id="Group_99" data-name="Group 99" transform="translate(3.057 1.661)">
        <path id="Path_87" data-name="Path 87" d="M35.58,14.478l-.007.013H19.4l-.007-.013,8.094-4.569Q31.535,12.192,35.58,14.478Z" transform="translate(-19.39 -9.909)" fill="#472d1c"/>
      </g>
    </g>
    <g id="Group_101" data-name="Group 101" transform="translate(-0.001 0.001)">
      <path id="Path_88" data-name="Path 88" d="M26.793,8.579a.187.187,0,0,0,.159.012A.972.972,0,0,0,27.53,8a1.028,1.028,0,0,0-.554-1.164L17.177,1.3a.186.186,0,0,0-.183,0L7.2,6.829A1.031,1.031,0,0,0,6.641,8a.971.971,0,0,0,.578.595.187.187,0,0,0,.159-.012l1.433-.809V22.485A.187.187,0,0,0,9,22.672H25.173a.187.187,0,0,0,.187-.187V7.77ZM7.278,8.207A.565.565,0,0,1,7,7.889a.659.659,0,0,1,.38-.733l9.707-5.481L26.8,7.16a.655.655,0,0,1,.374.729.565.565,0,0,1-.28.318L17.177,2.722a.187.187,0,0,0-.184,0Zm5.692-.552V8.989l-1.308.786-.923-.554V7.655Zm2.989,0V8.989l-1.308.785-1.308-.785V7.655Zm2.989,0V8.989l-1.308.786-1.308-.786V7.655Zm2.989,0V8.989l-1.308.786-1.308-.786V7.655Zm1.495,0V9.663L22.31,8.989V7.655Zm1.555,0V17.4H23.8V7.655ZM18.952,17.4H10.739V13.82H23.431V17.4Zm-3.547.373h3.36v1.049h-3.36ZM13.156,9.312l1.308.785v1.584l-1.308.785-1.308-.785V10.1Zm-.1,3.532a.186.186,0,0,0,.192,0l1.4-.84,1.4.84a.186.186,0,0,0,.192,0l1.4-.84,1.4.84a.186.186,0,0,0,.192,0l1.4-.84,1.4.84a.186.186,0,0,0,.192,0l1.212-.728v1.33H10.739v-.888L11.662,12Zm3.085-3.532,1.308.785v1.584l-1.308.785-1.308-.785V10.1Zm2.989,0,1.308.785v1.584l-1.308.785-1.308-.785V10.1Zm2.989,0,1.308.785v1.584l-1.308.785-1.308-.785V10.1ZM11.475,11.682l-.736.442V9.656l.736.442ZM10.366,17.4H9.184V7.655h1.182ZM9.184,22.3V17.771h5.849v1.236a.187.187,0,0,0,.187.187h3.733a.187.187,0,0,0,.187-.187V17.771h5.849V22.3H9.184ZM9.676,7.282,17.085,3.1l7.409,4.183Z" transform="translate(-5.374 -1.038)" fill="#3a322b"/>
      <path id="Path_89" data-name="Path 89" d="M94.477,2.534v.021a.826.826,0,0,0,.825.824h1.022a.825.825,0,0,0,.824-.825V2.532a.826.826,0,0,0-.023-.185l.363-.1a.187.187,0,1,0-.1-.36l-.436.119c-.016-.019-.03-.04-.048-.058a.819.819,0,0,0-.4-.22A1.632,1.632,0,0,0,96.631.722L96.625.691a.863.863,0,0,0-.672-.677.765.765,0,0,0-.669.2.787.787,0,0,0-.817.408A1.409,1.409,0,0,0,94.6,2.1a.819.819,0,0,0-.123.431Zm.825.472h0a.452.452,0,0,1-.452-.451V2.534a.452.452,0,0,1,.451-.452h.069v.924Zm1.473-.474v.021a.453.453,0,0,1-.451.452h-.579V2.081h.58a.452.452,0,0,1,.452.451ZM95.884.38a.484.484,0,0,1,.376.39L96.266.8a1.3,1.3,0,0,1-.173.912h-.567a1.053,1.053,0,0,1-.064-1.14A.4.4,0,0,1,95.884.38ZM94.8.792a.419.419,0,0,1,.238-.2,1.457,1.457,0,0,0,.075,1.14.814.814,0,0,0-.245.1A1.042,1.042,0,0,1,94.8.792Z" transform="translate(-76.724 -0.001)" fill="#3a322b"/>
      <path id="Path_90" data-name="Path 90" d="M111.6,60.909a.187.187,0,0,0-.241-.106l-.409.158c-.017-.017-.032-.035-.051-.05a.8.8,0,0,0-.4-.171,1.591,1.591,0,0,0,.024-.982l-.01-.031a.831.831,0,0,0-.718-.591.75.75,0,0,0-.634.258.772.772,0,0,0-.749.479,1.372,1.372,0,0,0,.273,1.425.816.816,0,0,0,.22.989.794.794,0,0,0,.5.18c.028,0,.056,0,.084,0l.987-.1a.812.812,0,0,0,.678-1.078l.338-.131A.187.187,0,0,0,111.6,60.909Zm-1.838-1.4a.462.462,0,0,1,.4.334l.008.024a1.26,1.26,0,0,1-.077.892l-.515.054h0l-.026,0a1.016,1.016,0,0,1-.169-1.086A.387.387,0,0,1,109.763,59.508Zm-1,.5a.405.405,0,0,1,.2-.208,1.42,1.42,0,0,0,.183,1.08.794.794,0,0,0-.217.12A1,1,0,0,1,108.758,60.012Zm.7,2.08A.426.426,0,0,1,109.14,62a.447.447,0,0,1,.225-.788l.06-.006.09.882Zm.987-.1h0l-.554.058-.09-.882.555-.058.045,0a.425.425,0,0,1,.269.1.447.447,0,0,1-.225.788Z" transform="translate(-88.114 -48.105)" fill="#3a322b"/>
      <path id="Path_91" data-name="Path 91" d="M2.937,52.8a.712.712,0,0,0-.684-.433.7.7,0,0,0-.585-.234A.782.782,0,0,0,1,52.68l-.009.029a1.461,1.461,0,0,0,.016.885.738.738,0,0,0-.354.155c-.015.012-.026.026-.04.039l-.361-.14A.187.187,0,0,0,.118,54l.291.113a.775.775,0,0,0-.032.155.758.758,0,0,0,.669.833l.9.094a.742.742,0,0,0,.547-.163.757.757,0,0,0,.209-.909,1.27,1.27,0,0,0,.238-1.32Zm-.336.162a.889.889,0,0,1-.142.863.734.734,0,0,0-.169-.093,1.314,1.314,0,0,0,.164-.944.383.383,0,0,1,.147.174Zm-1.252-.144.007-.021A.4.4,0,0,1,1.7,52.5a.342.342,0,0,1,.338.2.9.9,0,0,1-.151.953H1.873l-.459-.048A1.128,1.128,0,0,1,1.349,52.817ZM.749,54.3a.386.386,0,0,1,.141-.263.369.369,0,0,1,.273-.082l.488.051-.078.768-.487-.051A.384.384,0,0,1,.749,54.3Zm1.647.174a.386.386,0,0,1-.141.263.368.368,0,0,1-.273.082l-.039,0,.078-.768.038,0A.384.384,0,0,1,2.4,54.475Z" transform="translate(0.001 -42.407)" fill="#3a322b"/>
    </g>
  </g>
</svg>
