<svg xmlns="http://www.w3.org/2000/svg" width="25.715" height="25.587" viewBox="0 0 25.715 25.587">
  <g id="_353397_circle_map_marker_pin_icon" data-name="353397_circle_map_marker_pin_icon" transform="translate(-8.086 -8.207)">
    <path id="Path_194" data-name="Path 194" d="M32.942,14.943a6.736,6.736,0,0,0-13.472,0c0,5.33,6.736,13.217,6.736,13.217S32.942,20.245,32.942,14.943Zm-10.058-.4a3.322,3.322,0,1,1,3.322,3.322A3.322,3.322,0,0,1,22.884,14.54Z" transform="translate(-5.263)" fill="#ffb004"/>
    <circle id="Ellipse_8" data-name="Ellipse 8" cx="1.634" cy="1.634" r="1.634" transform="translate(19.309 12.907)" fill="#ffb004"/>
    <path id="Path_195" data-name="Path 195" d="M24.751,40.958c-.549.793-1.064,1.485-1.493,2.039,4.256.255,7.046,1.174,8.084,1.858-1.216.8-4.828,1.929-10.4,1.929s-9.182-1.128-10.4-1.929c1.038-.683,3.825-1.6,8.077-1.858-.43-.555-.946-1.246-1.5-2.039-5.238.516-9.042,2.065-9.042,3.9,0,2.253,5.757,4.08,12.858,4.08S33.8,47.109,33.8,44.855C33.8,43.023,29.994,41.473,24.751,40.958Z" transform="translate(0 -15.141)" fill="#ffb004"/>
  </g>
</svg>
