<svg id="calender-svgrepo-com" xmlns="http://www.w3.org/2000/svg" width="23" height="23" viewBox="0 0 23 23">
  <path id="calender-svgrepo-com-2" data-name="calender-svgrepo-com" d="M21.55,4.3h-2.3V3.15a1.15,1.15,0,1,0-2.3,0V4.3h-6.9V3.15a1.15,1.15,0,1,0-2.3,0V4.3H5.45A3.45,3.45,0,0,0,2,7.75v13.8A3.45,3.45,0,0,0,5.45,25h16.1A3.45,3.45,0,0,0,25,21.55V7.75A3.45,3.45,0,0,0,21.55,4.3ZM22.7,21.55a1.15,1.15,0,0,1-1.15,1.15H5.45A1.15,1.15,0,0,1,4.3,21.55V13.5H22.7Zm0-10.35H4.3V7.75A1.15,1.15,0,0,1,5.45,6.6h2.3V7.75a1.15,1.15,0,0,0,2.3,0V6.6h6.9V7.75a1.15,1.15,0,0,0,2.3,0V6.6h2.3A1.15,1.15,0,0,1,22.7,7.75Z" transform="translate(-2 -2)" fill="#e39c00"/>
</svg>
