<svg xmlns="http://www.w3.org/2000/svg" width="91.051" height="71.694" viewBox="0 0 91.051 71.694">
  <g id="camera-svgrepo-com_1_" data-name="camera-svgrepo-com (1)" transform="translate(0)">
    <rect id="Rectangle_121" data-name="Rectangle 121" width="14.235" height="7.299" transform="translate(4.977 3.125)" fill="#e39c00"/>
    <path id="Path_315" data-name="Path 315" d="M196.05,65.667l-29.739.2,3.195-13.444h23.4Z" transform="translate(-135.606 -52.422)" fill="#e39c00"/>
    <path id="Path_316" data-name="Path 316" d="M92.186,165.516H69.445l-2.951-2.673H25.7l-3.3,2.673H1.57V103.2H24.137l3.385,3.267h38.21L69.1,103.2H92.186Z" transform="translate(-1.28 -93.822)" fill="#ffd375"/>
    <rect id="Rectangle_122" data-name="Rectangle 122" width="23.088" height="62.32" transform="translate(67.818 9.374)" fill="#ffb004" opacity="0.68"/>
    <rect id="Rectangle_123" data-name="Rectangle 123" width="20.914" height="62.32" transform="translate(0 9.374)" fill="#6e4c00" opacity="0.38"/>
    <circle id="Ellipse_26" data-name="Ellipse 26" cx="19.937" cy="19.937" r="19.937" transform="translate(25.411 19.771)" fill="#845c05"/>
    <circle id="Ellipse_27" data-name="Ellipse 27" cx="12.387" cy="12.387" r="12.387" transform="translate(32.961 27.321)" fill="#e39c00"/>
    <circle id="Ellipse_28" data-name="Ellipse 28" cx="3.721" cy="3.721" r="3.721" transform="translate(7.679 21.276)" fill="#be8300"/>
    <circle id="Ellipse_29" data-name="Ellipse 29" cx="3.721" cy="3.721" r="3.721" transform="translate(7.679 33.53)" fill="#be8300"/>
    <circle id="Ellipse_30" data-name="Ellipse 30" cx="4.687" cy="4.687" r="4.687" transform="translate(75.63 16.715)" fill="#845c05"/>
    <path id="Path_317" data-name="Path 317" d="M199.25,208.822,181.337,223.18a12.415,12.415,0,0,0,5.9,7.307L205.1,216.169A12.413,12.413,0,0,0,199.25,208.822Z" transform="translate(-147.858 -179.947)" fill="#fff" opacity="0.58"/>
    <path id="Path_318" data-name="Path 318" d="M9.72,153.857H.785v11.659H21.906l3.3-2.673H66l2.6,2.359v.315H91.691V103.2H79.5v50.661H56.417v-.315Z" transform="translate(-0.64 -93.822)" fill="#ffb004" opacity="0.34"/>
  </g>
</svg>
