<svg xmlns="http://www.w3.org/2000/svg" width="14.437" height="14.435" viewBox="0 0 14.437 14.435">
  <g id="cancel-close-svgrepo-com" transform="translate(0 -0.016)">
    <g id="Group_235" data-name="Group 235" transform="translate(0 0.016)">
      <path id="Path_266" data-name="Path 266" d="M8.808,7.234l5.4-5.4a.791.791,0,0,0,0-1.117L13.733.247a.792.792,0,0,0-1.117,0l-5.4,5.4-5.4-5.4A.791.791,0,0,0,.7.247L.231.719a.79.79,0,0,0,0,1.117l5.4,5.4-5.4,5.4a.792.792,0,0,0,0,1.117l.473.473a.791.791,0,0,0,1.116,0l5.4-5.4,5.4,5.4a.783.783,0,0,0,.558.231h0a.783.783,0,0,0,.558-.231l.473-.473a.792.792,0,0,0,0-1.117Z" transform="translate(0 -0.016)"/>
    </g>
  </g>
</svg>
