<svg xmlns="http://www.w3.org/2000/svg" width="17.4" height="17.4" viewBox="0 0 17.4 17.4">
  <g id="checklist-svgrepo-com" transform="translate(-53 -23)">
    <g id="checklist-svgrepo-com_1_" data-name="checklist-svgrepo-com (1)" transform="translate(53 23)">
      <circle id="Ellipse_56" data-name="Ellipse 56" cx="1.5" cy="1.5" r="1.5" transform="translate(3 7.4)" fill="#adadad"/>
      <path id="Path_368" data-name="Path 368" d="M7.413,5.245,6,6.666a.8.8,0,0,1-.695.223,5.183,5.183,0,0,1-.97-.561.725.725,0,0,1,.783-1.22l.232.145,1.037-1.04A.729.729,0,0,1,7.413,5.245Z" transform="translate(-1.1 -1.1)" fill="#adadad"/>
      <path id="Path_369" data-name="Path 369" d="M17.25,6.725a.727.727,0,0,1-.725.725H10.718a.725.725,0,0,1,0-1.45h5.807A.727.727,0,0,1,17.25,6.725Z" transform="translate(-2.75 -1.65)" fill="#adadad"/>
      <circle id="Ellipse_57" data-name="Ellipse 57" cx="1.5" cy="1.5" r="1.5" transform="translate(3 11.4)" fill="#adadad"/>
      <path id="Path_370" data-name="Path 370" d="M17.25,12.725a.727.727,0,0,1-.725.725H10.718a.725.725,0,0,1,0-1.45h5.807A.727.727,0,0,1,17.25,12.725Zm0,4.35a.727.727,0,0,1-.725.725H10.718a.725.725,0,0,1,0-1.45h5.807A.727.727,0,0,1,17.25,17.075Z" transform="translate(-2.75 -3.3)" fill="#adadad"/>
      <path id="Path_371" data-name="Path 371" d="M15.95,0H1.45A1.454,1.454,0,0,0,0,1.45v14.5A1.454,1.454,0,0,0,1.45,17.4h14.5a1.454,1.454,0,0,0,1.45-1.45V1.45A1.454,1.454,0,0,0,15.95,0Zm0,15.587a.363.363,0,0,1-.362.362H1.812a.363.363,0,0,1-.362-.362V1.812a.363.363,0,0,1,.362-.362H15.587a.363.363,0,0,1,.362.362Z" fill="#adadad"/>
    </g>
  </g>
</svg>
