<svg xmlns="http://www.w3.org/2000/svg" width="18.513" height="21.125" viewBox="0 0 18.513 21.125">
  <g id="Component_24_6" data-name="Component 24 – 6" transform="translate(0.125)">
    <g id="bee-svgrepo-com_4_" data-name="bee-svgrepo-com (4)" transform="translate(0 5.079)">
      <g id="Group_268" data-name="Group 268" transform="translate(0 0)">
        <path id="Path_291" data-name="Path 291" d="M17.509,58.931a23.053,23.053,0,0,0-4.215-2.317,3.7,3.7,0,0,0-1.164-1.956c0-.008.008-.011.011-.019.03-.087.065-.171.1-.255A3.213,3.213,0,0,0,12.54,53c0-1.682-.639-2.435-1.51-2.766,0-.8-3.8-.8-3.8,0-.867.335-1.507,1.084-1.507,2.766a3.213,3.213,0,0,0,.3,1.385c.034.084.072.167.1.255,0,.011.011.019.015.03a3.692,3.692,0,0,0-1.149,1.937A22.935,22.935,0,0,0,.75,58.931a2.746,2.746,0,0,0,.1,3.873,2.908,2.908,0,0,0,1.952.852h.084A2.571,2.571,0,0,0,4.726,62.9a4.352,4.352,0,0,0,.544-.761c.833,2.077,2.306,3.416,3.843,3.416,1.556,0,3.028-1.351,3.858-3.455a4.632,4.632,0,0,0,.567.8,2.573,2.573,0,0,0,1.845.753h.084A2.858,2.858,0,0,0,17.41,62.8,2.746,2.746,0,0,0,17.509,58.931ZM7.225,51.071a2.983,2.983,0,0,1,1.918-.525,2.846,2.846,0,0,1,1.887.525A2.18,2.18,0,0,1,11.783,53a2.539,2.539,0,0,1-.24,1.092l-.057.148a5.194,5.194,0,0,0-2.344-.476,5.2,5.2,0,0,0-2.359.479c-.019-.049-.038-.1-.061-.152A2.484,2.484,0,0,1,6.483,53C6.483,51.954,6.719,51.379,7.225,51.071ZM4.189,62.363a1.858,1.858,0,0,1-1.366.529,2.115,2.115,0,0,1-1.431-.628,1.981,1.981,0,0,1-.1-2.8,38.276,38.276,0,0,1,5.954-3.059A38.089,38.089,0,0,1,4.189,62.363ZM9.112,64.8c-1.358,0-2.682-1.411-3.348-3.534,1.065-1.986,2.378-4.992,2.576-5.444a.382.382,0,0,0-.5-.5c-.205.091-.951.415-1.887.841.525-1.122,1.533-1.636,3.188-1.636s2.656.517,3.181,1.64c-.94-.43-1.689-.757-1.9-.848a.379.379,0,0,0-.5.5c.194.449,1.491,3.413,2.549,5.4C11.817,63.341,10.467,64.8,9.112,64.8Zm7.757-2.534a2.115,2.115,0,0,1-1.431.628,1.852,1.852,0,0,1-1.366-.529,6.549,6.549,0,0,1-.784-1.233c0-.015.008-.027.011-.042l-.042-.011c-.67-1.236-1.545-3.1-2.245-4.672a38.091,38.091,0,0,1,5.954,3.059A1.985,1.985,0,0,1,16.87,62.264Z" transform="translate(0.002 -49.638)" fill="#adadad" stroke="#adadad" stroke-width="0.25"/>
      </g>
    </g>
    <path id="crown-svgrepo-com" d="M5.429,13.519,5.056,17.5a.156.156,0,0,1-.141.153.121.121,0,0,1-.028,0H.543a.119.119,0,0,1-.026,0A.155.155,0,0,1,.374,17.5L0,13.519a.207.207,0,0,1,.007-.077l.008-.028A.151.151,0,0,1,.139,13.3a.139.139,0,0,1,.138.086l1.139,2.381L2.6,11.774a.137.137,0,0,1,.271,0l1.167,3.951,1.119-2.339a.139.139,0,0,1,.138-.086.152.152,0,0,1,.123.115l.008.028A.2.2,0,0,1,5.429,13.519Z" transform="translate(6.416 -11.659)" fill="#adadad"/>
  </g>
</svg>
