<svg id="customer-support-symbol-svgrepo-com" xmlns="http://www.w3.org/2000/svg" width="29.12" height="23.393" viewBox="0 0 29.12 23.393">
  <path id="Path_221" data-name="Path 221" d="M29.12,19.382v2.5a2.58,2.58,0,0,1-2.408,2.719H24.58a1.058,1.058,0,0,1-.987-1.114V17.776a1.074,1.074,0,0,1,.87-1.1c-1.082-5.043-5.1-8.806-9.9-8.806s-8.821,3.764-9.9,8.807a1.072,1.072,0,0,1,.87,1.1v5.715a1.058,1.058,0,0,1-.987,1.114H2.408A2.581,2.581,0,0,1,0,21.887v-2.5a2.58,2.58,0,0,1,2.408-2.718h.22C3.75,10.386,8.672,5.643,14.561,5.643s10.811,4.743,11.932,11.021h.221A2.578,2.578,0,0,1,29.12,19.382ZM17.538,24.671a2.082,2.082,0,0,1-1.827,1.021,1.866,1.866,0,1,1,0-3.712A2.082,2.082,0,0,1,17.538,23h4.948a10.7,10.7,0,0,0,.628-3.618c0-5.332-3.829-9.654-8.554-9.654S6,14.051,6,19.383s3.83,9.654,8.555,9.654a8.349,8.349,0,0,0,7.151-4.361H17.538v0Z" transform="translate(0 -5.643)"/>
</svg>
