<svg xmlns="http://www.w3.org/2000/svg" width="31.12" height="25" viewBox="0 0 31.12 25">
  <g id="customer-support-symbol-svgrepo-com" transform="translate(0 -5.643)">
    <path id="Path_221" data-name="Path 221" d="M31.12,20.325V23a2.757,2.757,0,0,1-2.574,2.906H26.269a1.131,1.131,0,0,1-1.055-1.191V18.61a1.147,1.147,0,0,1,.93-1.177c-1.156-5.39-5.455-9.411-10.582-9.411S6.134,12.044,4.978,17.434a1.146,1.146,0,0,1,.93,1.177v6.107a1.13,1.13,0,0,1-1.055,1.191H2.574A2.759,2.759,0,0,1,0,23V20.325a2.757,2.757,0,0,1,2.574-2.9h.235c1.2-6.709,6.459-11.778,12.752-11.778s11.553,5.069,12.752,11.778h.236A2.755,2.755,0,0,1,31.12,20.325ZM18.743,25.978a2.225,2.225,0,0,1-1.952,1.091,1.994,1.994,0,1,1,0-3.967,2.225,2.225,0,0,1,1.952,1.091H24.03a11.431,11.431,0,0,0,.671-3.867c0-5.7-4.092-10.317-9.142-10.317S6.417,14.629,6.417,20.326s4.093,10.317,9.142,10.317A8.922,8.922,0,0,0,23.2,25.982H18.743v0Z" transform="translate(0 0)" fill="#ffb004"/>
  </g>
</svg>
