<svg id="download-arrow-svgrepo-com" xmlns="http://www.w3.org/2000/svg" width="17.996" height="22.451" viewBox="0 0 17.996 22.451">
  <g id="Group_431" data-name="Group 431">
    <path id="Path_493" data-name="Path 493" d="M70.462,466.114H54.254a.9.9,0,0,0-.9.9v1.2a.9.9,0,0,0,.9.9h16.2a.9.9,0,0,0,.9-.9v-1.2A.885.885,0,0,0,70.462,466.114Z" transform="translate(-53.357 -446.655)" fill="#fff"/>
    <path id="Path_494" data-name="Path 494" d="M106.906,17.853a.9.9,0,0,0,.632.265.885.885,0,0,0,.632-.265l6.138-6.138a.9.9,0,0,0,0-1.271l-.85-.85a.9.9,0,0,0-1.271,0l-3.155,3.159V.9a.9.9,0,0,0-.9-.9h-1.2a.9.9,0,0,0-.9.9V12.755L102.882,9.6a.9.9,0,0,0-1.271,0l-.85.85a.9.9,0,0,0,0,1.271Z" transform="translate(-98.532)" fill="#fff"/>
  </g>
</svg>
