<svg xmlns="http://www.w3.org/2000/svg" width="12.582" height="15.156" viewBox="0 0 12.582 15.156">
  <g id="edit-svgrepo-com" transform="translate(-1.285 1.657) rotate(-7)">
    <path id="Path_230" data-name="Path 230" d="M5.243,16.128l8.419-8.42,2.244,2.244-8.42,8.419Z" transform="translate(-4.055 -5.96)"/>
    <path id="Path_231" data-name="Path 231" d="M48.866,3.03l.321-.321A1.587,1.587,0,1,0,46.942.465l-.321.321Z" transform="translate(-36.051)"/>
    <path id="Path_232" data-name="Path 232" d="M.929,46.527.011,49.28a.227.227,0,0,0,.215.3A.224.224,0,0,0,.3,49.566l2.753-.918Z" transform="translate(0 -35.978)"/>
    <path id="Path_233" data-name="Path 233" d="M43.793,5.2l.321-.321,2.244,2.244-.321.321Z" transform="translate(-33.864 -3.773)"/>
  </g>
</svg>
