<svg xmlns="http://www.w3.org/2000/svg" width="45" height="32.341" viewBox="0 0 45 32.341">
  <g id="email-svgrepo-com_1_" data-name="email-svgrepo-com (1)" transform="translate(0 -19.068)">
    <path id="Path_268" data-name="Path 268" d="M27.491,30.52l19.257-11.4a4.287,4.287,0,0,0-.64-.052H8.873a4.379,4.379,0,0,0-.639.052Z" transform="translate(-4.991)"/>
    <path id="Path_269" data-name="Path 269" d="M23.7,42.039c-.026.018-.054.031-.08.048s-.057.034-.085.049a2.118,2.118,0,0,1-.463.2c-.016.005-.032.008-.048.012a2.065,2.065,0,0,1-.525.074h0a2.036,2.036,0,0,1-.524-.074l-.049-.012a2.177,2.177,0,0,1-.463-.2l-.085-.049c-.027-.017-.054-.029-.081-.048L.063,27.172A5.108,5.108,0,0,0,0,27.944V51.8a4.293,4.293,0,0,0,4.024,4.518H40.976A4.293,4.293,0,0,0,45,51.8V27.944a5.008,5.008,0,0,0-.063-.772Z" transform="translate(0 -4.912)"/>
  </g>
</svg>
