<svg xmlns="http://www.w3.org/2000/svg" xmlns:xlink="http://www.w3.org/1999/xlink" width="175.532" height="162.994" viewBox="0 0 175.532 162.994">
  <defs>
    <linearGradient id="linear-gradient" x1="0.174" y1="-146.919" x2="0.826" y2="-145.787" gradientUnits="objectBoundingBox">
      <stop offset="0" stop-color="#18884f"/>
      <stop offset="0.5" stop-color="#117e43"/>
      <stop offset="1" stop-color="#0b6631"/>
    </linearGradient>
  </defs>
  <g id="excel-svgrepo-com" transform="translate(-2 -3)">
    <path id="Path_503" data-name="Path 503" d="M77.9,25.625,8.512,13.4v90.33a7.473,7.473,0,0,0,7.479,7.466H135.729a7.473,7.473,0,0,0,7.491-7.466h0V70.448Z" transform="translate(34.312 54.798)" fill="#185c37"/>
    <path id="Path_504" data-name="Path 504" d="M77.9,3H15.991a7.473,7.473,0,0,0-7.479,7.466h0V43.749L77.9,84.5l36.743,12.225L143.221,84.5V43.749Z" transform="translate(34.312 0)" fill="#21a366"/>
    <path id="Path_505" data-name="Path 505" d="M8.512,9.5H77.9V50.249H8.512Z" transform="translate(34.312 34.249)" fill="#107c41"/>
    <path id="Path_506" data-name="Path 506" d="M58.175,8.2H8.512V110.071H58.175a7.523,7.523,0,0,0,7.485-7.466V15.666A7.523,7.523,0,0,0,58.175,8.2Z" transform="translate(34.312 27.399)" opacity="0.1"/>
    <path id="Path_507" data-name="Path 507" d="M54.094,8.85H8.512V110.721H54.094a7.523,7.523,0,0,0,7.485-7.466V16.316A7.523,7.523,0,0,0,54.094,8.85Z" transform="translate(34.312 30.824)" opacity="0.2"/>
    <path id="Path_508" data-name="Path 508" d="M54.094,8.85H8.512v93.722H54.094a7.523,7.523,0,0,0,7.485-7.466V16.316A7.523,7.523,0,0,0,54.094,8.85Z" transform="translate(34.312 30.824)" opacity="0.2"/>
    <path id="Path_509" data-name="Path 509" d="M50.013,8.85H8.512v93.722h41.5A7.523,7.523,0,0,0,57.5,95.105V16.316A7.523,7.523,0,0,0,50.013,8.85Z" transform="translate(34.312 30.824)" opacity="0.2"/>
    <path id="Path_510" data-name="Path 510" d="M9.485,8.85H84.325a7.479,7.479,0,0,1,7.485,7.466V91.03A7.479,7.479,0,0,1,84.325,98.5H9.485A7.473,7.473,0,0,1,2,91.03V16.316A7.473,7.473,0,0,1,9.485,8.85Z" transform="translate(0 30.824)" fill="url(#linear-gradient)"/>
    <path id="Path_511" data-name="Path 511" d="M5.7,60.687,21.441,36.338,7.023,12.127H18.6l7.868,15.5a30.145,30.145,0,0,1,1.492,3.285h.107c.514-1.179,1.059-2.313,1.63-3.423l8.413-15.34H48.768L33.98,36.225l15.165,24.48H37.8l-9.09-17a14.763,14.763,0,0,1-1.072-2.288h-.15a10.582,10.582,0,0,1-1.053,2.2l-9.36,17.064Z" transform="translate(19.495 48.09)" fill="#fff"/>
    <path id="Path_512" data-name="Path 512" d="M77.413,3H19.581V43.749H84.9V10.466A7.473,7.473,0,0,0,77.413,3Z" transform="translate(92.634 0)" fill="#33c481"/>
    <path id="Path_513" data-name="Path 513" d="M19.581,16H84.9V56.749H19.581Z" transform="translate(92.634 68.497)" fill="#107c41"/>
  </g>
</svg>
