<svg id="flower-svgrepo-com" xmlns="http://www.w3.org/2000/svg" width="18.503" height="18.51" viewBox="0 0 18.503 18.51">
  <g id="Group_269" data-name="Group 269">
    <path id="Path_292" data-name="Path 292" d="M18.6,9.255a4.026,4.026,0,0,0-1.583-3.2,3.909,3.909,0,0,0-1.108-3.36,4.026,4.026,0,0,0-3.36-1.108,4.034,4.034,0,0,0-6.408,0,3.891,3.891,0,0,0-3.36,1.108,4.047,4.047,0,0,0-1.1,3.36,4.034,4.034,0,0,0,0,6.408,3.909,3.909,0,0,0,1.108,3.36,4.048,4.048,0,0,0,3.36,1.108,4.034,4.034,0,0,0,6.408,0,3.96,3.96,0,0,0,3.36-1.108,4,4,0,0,0,1.108-3.36A4.041,4.041,0,0,0,18.6,9.255ZM15.8,11.388a.779.779,0,0,0-.357.911,2.365,2.365,0,0,1-.592,2.411,2.54,2.54,0,0,1-2.411.592.756.756,0,0,0-.911.357,2.421,2.421,0,0,1-2.175,1.306,2.494,2.494,0,0,1-2.175-1.306.774.774,0,0,0-.911-.357,2.385,2.385,0,0,1-2.411-.592A2.54,2.54,0,0,1,3.262,12.3a.756.756,0,0,0-.357-.911A2.421,2.421,0,0,1,1.6,9.213,2.494,2.494,0,0,1,2.905,7.038a.779.779,0,0,0,.357-.911,2.365,2.365,0,0,1,.592-2.411,2.54,2.54,0,0,1,2.411-.592.756.756,0,0,0,.911-.357,2.425,2.425,0,0,1,2.175-1.3,2.494,2.494,0,0,1,2.175,1.306.779.779,0,0,0,.911.357,2.385,2.385,0,0,1,2.411.592,2.54,2.54,0,0,1,.592,2.411.756.756,0,0,0,.357.911A2.421,2.421,0,0,1,17.1,9.217,2.5,2.5,0,0,1,15.8,11.388Z" transform="translate(-0.1 0)"/>
    <path id="Path_293" data-name="Path 293" d="M118.355,111.5a5.756,5.756,0,1,0,5.755,5.76A5.759,5.759,0,0,0,118.355,111.5Zm0,9.735a3.975,3.975,0,1,1,3.974-3.975A3.976,3.976,0,0,1,118.355,121.235Z" transform="translate(-109.104 -108.035)"/>
  </g>
</svg>
