<svg xmlns="http://www.w3.org/2000/svg" width="79.123" height="73.13" viewBox="0 0 79.123 73.13">
  <g id="Group_11027" data-name="Group 11027" transform="translate(0)">
    <g id="Group_275" data-name="Group 275" transform="translate(0 0)">
      <path id="Path_314" data-name="Path 314" d="M0,10.11C0,6.185,2.585,3,5.769,3H73.353c3.185,0,5.769,3.185,5.769,7.11V69.02c0,3.927-2.583,7.11-5.769,7.11H5.769C2.583,76.13,0,72.947,0,69.02ZM5.769,9.094a.935.935,0,0,0-.824,1.016V69.02a.935.935,0,0,0,.824,1.016H73.353a.935.935,0,0,0,.824-1.016V10.11a.935.935,0,0,0-.824-1.016Z" transform="translate(0 -3)" fill="#845c05" fill-rule="evenodd"/>
    </g>
    <g id="microphone-svgrepo-com_2_" data-name="microphone-svgrepo-com (2)" transform="translate(25.722 14.832)">
      <path id="Path_319" data-name="Path 319" d="M164.255,250.372V239.09a1.7,1.7,0,1,1,3.408,0v11.282Z" transform="translate(-152.12 -208.44)" fill="#845c05"/>
      <path id="Path_320" data-name="Path 320" d="M116.947,21.677a9.883,9.883,0,0,1-19.765,0V9.883a9.883,9.883,0,0,1,19.765,0Z" transform="translate(-93.226)" fill="#df9800"/>
      <path id="Path_321" data-name="Path 321" d="M114.933,32,97.182,49.756v.023a9.886,9.886,0,0,0,6.655,9.343l13.111-13.111V37.985A9.838,9.838,0,0,0,114.933,32Z" transform="translate(-93.226 -28.102)" fill="#ffeeca" opacity="0.15"/>
      <path id="Path_322" data-name="Path 322" d="M101.436,86.049H97.182v2.01h4.254a1,1,0,0,0,0-2.01Zm1-3.872a1,1,0,0,0-1-1H97.182v2.01h4.254A1,1,0,0,0,102.44,82.177Zm-1,8.749H97.182v2.009h4.254a1,1,0,1,0,0-2.009Z" transform="translate(-93.226 -71.274)" fill="#6a4800"/>
      <path id="Path_323" data-name="Path 323" d="M216.153,87.053a1,1,0,0,0,1,1h4.254v-2.01h-4.254A1,1,0,0,0,216.153,87.053Zm1-3.872h4.254v-2.01h-4.254a1,1,0,0,0,0,2.01Zm-1,8.749a1,1,0,0,0,1,1h4.254V90.925h-4.254A1,1,0,0,0,216.153,91.93Z" transform="translate(-197.69 -71.273)" fill="#6a4800"/>
      <path id="Path_324" data-name="Path 324" d="M78.58,182.482a13.854,13.854,0,0,1-13.839-13.839,1.25,1.25,0,1,1,2.5,0,11.34,11.34,0,0,0,22.679,0,1.249,1.249,0,1,1,2.5,0A13.854,13.854,0,0,1,78.58,182.482Z" transform="translate(-64.741 -146.982)" fill="#6a4800"/>
      <path id="Path_325" data-name="Path 325" d="M128.777,334.373a3.067,3.067,0,0,0-3.067-3.067h-9.816a3.067,3.067,0,0,0-3.067,3.067Z" transform="translate(-106.963 -290.907)" fill="#6a4800"/>
    </g>
  </g>
</svg>
