<svg xmlns="http://www.w3.org/2000/svg" width="30.718" height="36.889" viewBox="0 0 30.718 36.889">
  <g id="Group_11022" data-name="Group 11022" transform="translate(-21 -49.541)">
    <g id="Icons" transform="translate(7.765 40.065)">
      <g id="Group_366" data-name="Group 366" transform="translate(13.235 11.935)">
        <path id="Path_402" data-name="Path 402" d="M43.816,33a3.4,3.4,0,0,0-.657-1.044,3.206,3.206,0,0,0-1.171-.761,8.951,8.951,0,0,1-3.435-4.235c0-.011-.014-.019-.019-.03l-1.879-4.954a12.11,12.11,0,0,0-6.407-6.809,11.529,11.529,0,0,0-6-.986l-.033-.087a3.322,3.322,0,0,0-1.751-1.868,3.246,3.246,0,0,0-2.537-.069,3.323,3.323,0,0,0-1.839,1.779,3.394,3.394,0,0,0-.068,2.577l.028.073a12.394,12.394,0,0,0-4,14.2l1.888,5.006s0,0,0,.006a9.315,9.315,0,0,1,.252,5.408,3.11,3.11,0,0,0-.245,2.684l.009.022a2.108,2.108,0,0,0,2.741,1.107L42.6,35.753A2.143,2.143,0,0,0,43.816,33Zm-26.495-3.68a.549.549,0,0,1-.1.008.5.5,0,0,1-.49-.41,10.407,10.407,0,0,1-.181-1.765.5.5,0,0,1,.491-.515h.008a.5.5,0,0,1,.5.5,9.282,9.282,0,0,0,.163,1.589A.508.508,0,0,1,17.321,29.323Zm4.109-9.935A9.313,9.313,0,0,0,19.65,21.07a9.485,9.485,0,0,0-1.8,3.573.5.5,0,0,1-.483.378.49.49,0,0,1-.127-.016.508.508,0,0,1-.356-.62,10.5,10.5,0,0,1,1.995-3.961,10.237,10.237,0,0,1,1.974-1.864.491.491,0,0,1,.7.12A.511.511,0,0,1,21.43,19.388Z" transform="translate(-13.235 -11.935)" fill="#fff"/>
        <path id="Path_403" data-name="Path 403" d="M25.079,32.465l-.654.251-4.187,1.61-.654.251a2.78,2.78,0,0,0,1.34,1.247,2.833,2.833,0,0,0,2.165.051l.258-.1a2.835,2.835,0,0,0,1.573-1.488A2.786,2.786,0,0,0,25.079,32.465Z" transform="translate(-9.578 -1.635)" fill="#fff"/>
      </g>
    </g>
    <circle id="Ellipse_68" data-name="Ellipse 68" cx="5.827" cy="5.827" r="5.827" transform="translate(33.724 54.466) rotate(-25)" fill="#e3170a"/>
  </g>
</svg>
