<svg xmlns="http://www.w3.org/2000/svg" width="43" height="43" viewBox="0 0 43 43"><g transform="translate(9.4 9)"><path d="M0,0H24V24H0Z" fill="none"/><path d="M21,2.992V21.008a1,1,0,0,1-.993.992H3.993A.993.993,0,0,1,3,21.008V2.992A1,1,0,0,1,3.993,2H20.007A.993.993,0,0,1,21,2.992Zm-9.707,10.13L8.818,10.646,7.4,12.061l3.889,3.889,5.657-5.657L15.536,8.879l-4.243,4.242Z" fill="#e39c00"/></g><g fill="none" stroke="#e39c00" stroke-width="2"><circle cx="21.5" cy="21.5" r="21.5" stroke="none"/><circle cx="21.5" cy="21.5" r="20.5" fill="none"/></g></svg>