<svg xmlns="http://www.w3.org/2000/svg" width="43" height="43" viewBox="0 0 43 43"><g transform="translate(13.422 9.15)"><path d="M76.266.362a.676.676,0,0,0-.6-.362H65.807a.676.676,0,0,0-.646.481L61.639,12.228a.666.666,0,0,0,.105.592.674.674,0,0,0,.541.269h5.529L65.587,24.2a.675.675,0,0,0,1.247.465L75.52,9.481a.673.673,0,0,0-.586-1.006H71.023l5.2-7.418A.667.667,0,0,0,76.266.362Z" transform="translate(-61.611)" fill="#e39c00"/></g><g fill="none" stroke="#e39c00" stroke-width="2"><circle cx="21.5" cy="21.5" r="21.5" stroke="none"/><circle cx="21.5" cy="21.5" r="20.5" fill="none"/></g></svg>