<svg xmlns="http://www.w3.org/2000/svg" width="16.447" height="16.342" viewBox="0 0 16.447 16.342">
  <g id="Group_11026" data-name="Group 11026" transform="translate(-239 -741.658)">
    <g id="water-treatment-svgrepo-com" transform="translate(178.543 708.221)">
      <path id="Path_305" data-name="Path 305" d="M20.5,21.667a1.706,1.706,0,0,0,1.667-1.742,5.781,5.781,0,0,0-1.113-2.849c-.191-.29-.382-.553-.554-.775-.171.222-.363.485-.554.775a5.781,5.781,0,0,0-1.113,2.849A1.706,1.706,0,0,0,20.5,21.667Zm-.543-6.025C19.222,16.57,18,18.349,18,19.924a2.5,2.5,0,1,0,5,0c0-1.575-1.222-3.354-1.957-4.283-.317-.4-.543-.642-.543-.642S20.274,15.242,19.957,15.642Z" transform="translate(48.028 22.858)" fill="#333" stroke="#000" stroke-width="0.2" fill-rule="evenodd"/>
    </g>
    <g id="refresh-svgrepo-com" transform="translate(227.94 730.651)">
      <g id="Group_271" data-name="Group 271" transform="translate(11.06 11.007)">
        <g id="Group_270" data-name="Group 270" transform="translate(0 0)">
          <path id="Path_300" data-name="Path 300" d="M26.68,239.8h-.04a.684.684,0,0,0-.665.665,6.771,6.771,0,0,1-12.134,3.988l1.984.416a.686.686,0,1,0,.282-1.343l-3.488-.732a.68.68,0,0,0-.812.534l-.725,3.511a.685.685,0,0,0,1.343.275l.369-1.782A8.142,8.142,0,0,0,27.348,240.5.693.693,0,0,0,26.68,239.8Z" transform="translate(-11.067 -232.12)"/>
          <path id="Path_301" data-name="Path 301" d="M26.979,12.027a.681.681,0,0,0-.822.51L25.74,14.31a8.143,8.143,0,0,0-14.679,4.437.684.684,0,0,0,.644.725h.04a.689.689,0,0,0,.685-.644,6.769,6.769,0,0,1,12.235-3.659L22.7,14.7a.685.685,0,1,0-.319,1.333l3.467.826a.679.679,0,0,0,.826-.51l.819-3.494a.686.686,0,0,0-.51-.826Z" transform="translate(-11.06 -11.007)"/>
        </g>
      </g>
    </g>
  </g>
</svg>
