<svg xmlns="http://www.w3.org/2000/svg" width="22.449" height="22.37" viewBox="0 0 22.449 22.37">
  <g id="Group_11039" data-name="Group 11039" transform="translate(0.519 0.557)">
    <g id="Group_270" data-name="Group 270">
      <path id="Path_300" data-name="Path 300" d="M31.38,239.8h-.052a.909.909,0,0,0-.865.9,9.173,9.173,0,0,1-6.874,8.76,8.61,8.61,0,0,1-8.913-3.354l2.581.564a.9.9,0,0,0,1.057-.719.93.93,0,0,0-.69-1.1l-4.537-.992a.89.89,0,0,0-1.057.724l-.943,4.76a.928.928,0,0,0,.694,1.1.892.892,0,0,0,1.052-.724l.48-2.416a10.354,10.354,0,0,0,10.677,3.968,11.014,11.014,0,0,0,8.258-10.512A.924.924,0,0,0,31.38,239.8Z" transform="translate(-11.067 -230.298)" fill="#e39c00" stroke="#e39c00" stroke-width="1"/>
      <path id="Path_301" data-name="Path 301" d="M31.779,12.39a.886.886,0,0,0-1.07.692l-.542,2.4a10.377,10.377,0,0,0-10.573-4.264A10.981,10.981,0,0,0,11.062,21.5a.915.915,0,0,0,.839.983h.052a.914.914,0,0,0,.891-.874,9.136,9.136,0,0,1,7.1-8.565,8.628,8.628,0,0,1,8.829,3.6L26.2,16.013a.892.892,0,0,0-1.075.687.933.933,0,0,0,.66,1.119L30.3,18.939a.887.887,0,0,0,1.075-.692l1.066-4.737a.932.932,0,0,0-.664-1.119Z" transform="translate(-11.06 -11.007)" fill="#e39c00" stroke="#e39c00" stroke-width="1"/>
    </g>
  </g>
</svg>
