<svg id="hive-svgrepo-com_1_" data-name="hive-svgrepo-com (1)" xmlns="http://www.w3.org/2000/svg" width="23.75" height="24.278" viewBox="0 0 23.75 24.278">
  <g id="Group_167" data-name="Group 167">
    <g id="Group_166" data-name="Group 166">
      <path id="Path_222" data-name="Path 222" d="M28.523,0H6.357a.809.809,0,0,0-.792.825.809.809,0,0,0,.792.825H16.648V3.895c-3.245.333-6.17,2.7-7.941,6.555H26.172c-1.77-3.856-4.7-6.222-7.94-6.555V1.65H28.523a.809.809,0,0,0,.792-.825A.809.809,0,0,0,28.523,0Z" transform="translate(-5.565 0)" fill="#e39c00"/>
    </g>
  </g>
  <g id="Group_169" data-name="Group 169" transform="translate(2.133 20.978)">
    <g id="Group_168" data-name="Group 168">
      <path id="Path_223" data-name="Path 223" d="M48.744,445.217a16.579,16.579,0,0,0,.921,2.8.825.825,0,0,0,.756.5h5.264a.825.825,0,0,0,.825-.825v-2.475Z" transform="translate(-48.744 -445.217)" fill="#e39c00"/>
    </g>
  </g>
  <g id="Group_171" data-name="Group 171" transform="translate(13.85 20.978)">
    <g id="Group_170" data-name="Group 170">
      <path id="Path_224" data-name="Path 224" d="M306.087,445.217v2.475a.825.825,0,0,0,.825.825h5.264a.825.825,0,0,0,.756-.5,16.584,16.584,0,0,0,.922-2.8Z" transform="translate(-306.087 -445.217)" fill="#e39c00"/>
    </g>
  </g>
  <g id="Group_173" data-name="Group 173" transform="translate(1.65 16.258)">
    <g id="Group_172" data-name="Group 172">
      <path id="Path_225" data-name="Path 225" d="M59.4,345.043H38.99a19.628,19.628,0,0,0,.137,3.3h7.778a3.205,3.205,0,0,1,1.162-1.378,2.331,2.331,0,0,1,2.8.454,2.708,2.708,0,0,1,.571.924h7.831A19.644,19.644,0,0,0,59.4,345.043Z" transform="translate(-38.972 -345.043)" fill="#e39c00"/>
    </g>
  </g>
  <g id="Group_175" data-name="Group 175" transform="translate(1.814 11.538)">
    <g id="Group_174" data-name="Group 174">
      <path id="Path_226" data-name="Path 226" d="M61.671,244.87H43.043a18.265,18.265,0,0,0-.746,3.3h20.12A18.251,18.251,0,0,0,61.671,244.87Z" transform="translate(-42.297 -244.87)" fill="#e39c00"/>
    </g>
  </g>
</svg>
