<svg xmlns="http://www.w3.org/2000/svg" width="18.556" height="18.554" viewBox="0 0 18.556 18.554">
  <path id="hive-svgrepo-com_2_" data-name="hive-svgrepo-com (2)" d="M21.445,7.693,19.384,3.57A1.032,1.032,0,0,0,18.461,3H13.308a1.032,1.032,0,0,0-.923.57L10.609,7.123H6.092a1.032,1.032,0,0,0-.923.57L3.108,11.816a1.031,1.031,0,0,0,0,.923L5.17,16.862a1.033,1.033,0,0,0,.923.569h4.517l1.777,3.553a1.029,1.029,0,0,0,.922.57h5.154a1.032,1.032,0,0,0,.923-.57l2.062-4.123a1.031,1.031,0,0,0,0-.923l-1.832-3.661,1.831-3.662a1.031,1.031,0,0,0,0-.921Zm-7.5-2.632h3.88l1.546,3.092-1.546,3.092h-3.88L12.4,8.154ZM5.183,12.277,6.729,9.185h3.88l1.546,3.092-1.546,3.092H6.729Zm12.641,7.215h-3.88L12.4,16.4l1.546-3.092h3.88L19.371,16.4Z" transform="translate(-2.999 -3)"/>
</svg>
