<svg id="hive-svgrepo-com_1_" data-name="hive-svgrepo-com (1)" xmlns="http://www.w3.org/2000/svg" width="24.749" height="25.3" viewBox="0 0 24.749 25.3">
  <g id="Group_167" data-name="Group 167" transform="translate(0)">
    <g id="Group_166" data-name="Group 166">
      <path id="Path_222" data-name="Path 222" d="M29.49,0H6.39a.825.825,0,0,0,0,1.65H17.115V3.895c-3.381.333-6.43,2.7-8.275,6.555h18.2c-1.845-3.856-4.893-6.222-8.275-6.555V1.65H29.49a.825.825,0,0,0,0-1.65Z" transform="translate(-5.565 0)"/>
    </g>
  </g>
  <g id="Group_169" data-name="Group 169" transform="translate(2.134 22)">
    <g id="Group_168" data-name="Group 168">
      <path id="Path_223" data-name="Path 223" d="M48.744,445.217a16.579,16.579,0,0,0,.921,2.8.825.825,0,0,0,.756.5h5.264a.825.825,0,0,0,.825-.825v-2.475Z" transform="translate(-48.744 -445.217)"/>
    </g>
  </g>
  <g id="Group_171" data-name="Group 171" transform="translate(14.85 22)">
    <g id="Group_170" data-name="Group 170">
      <path id="Path_224" data-name="Path 224" d="M306.087,445.217v2.475a.825.825,0,0,0,.825.825h5.264a.825.825,0,0,0,.756-.5,16.584,16.584,0,0,0,.922-2.8Z" transform="translate(-306.087 -445.217)"/>
    </g>
  </g>
  <g id="Group_173" data-name="Group 173" transform="translate(1.651 17.05)">
    <g id="Group_172" data-name="Group 172">
      <path id="Path_225" data-name="Path 225" d="M60.4,345.043H38.991a18.721,18.721,0,0,0,.144,3.3h8.158a3.25,3.25,0,0,1,1.218-1.378,2.532,2.532,0,0,1,2.934.454,2.691,2.691,0,0,1,.6.924h8.213A18.735,18.735,0,0,0,60.4,345.043Z" transform="translate(-38.972 -345.043)"/>
    </g>
  </g>
  <g id="Group_175" data-name="Group 175" transform="translate(1.815 12.1)">
    <g id="Group_174" data-name="Group 174">
      <path id="Path_226" data-name="Path 226" d="M62.634,244.87H43.08a17.534,17.534,0,0,0-.783,3.3h21.12A17.521,17.521,0,0,0,62.634,244.87Z" transform="translate(-42.297 -244.87)"/>
    </g>
  </g>
</svg>
