<svg xmlns="http://www.w3.org/2000/svg" width="25.802" height="25.8" viewBox="0 0 25.802 25.8">
  <path id="hive-svgrepo-com_3_" data-name="hive-svgrepo-com (3)" d="M28.65,9.526,25.783,3.793A1.435,1.435,0,0,0,24.5,3H17.334a1.435,1.435,0,0,0-1.283.793l-2.47,4.941H7.3a1.435,1.435,0,0,0-1.283.793L3.151,15.259a1.433,1.433,0,0,0,0,1.283l2.867,5.733a1.436,1.436,0,0,0,1.283.791h6.281l2.471,4.941a1.43,1.43,0,0,0,1.281.793H24.5a1.435,1.435,0,0,0,1.283-.793l2.867-5.733a1.433,1.433,0,0,0,0-1.283L26.1,15.9l2.546-5.093a1.433,1.433,0,0,0,0-1.281ZM18.219,5.867h5.4l2.15,4.3-2.15,4.3h-5.4l-2.15-4.3ZM6.036,15.9l2.15-4.3h5.4l2.15,4.3-2.15,4.3h-5.4ZM23.614,25.933h-5.4l-2.15-4.3,2.15-4.3h5.4l2.15,4.3Z" transform="translate(-3 -3)" fill="#e39c00"/>
</svg>
