<svg xmlns="http://www.w3.org/2000/svg" width="15.225" height="15.225" viewBox="0 0 15.225 15.225">
  <path id="honey-svgrepo-com" d="M15.067,1.373,13.856.161a.551.551,0,0,0-.779,0L9.159,4.079l-.594-.594a.551.551,0,0,0-.253-.144A5.914,5.914,0,0,0,5.6,3.317a.551.551,0,0,0-.271.927l.573.573-.735.736L3.978,4.369A.551.551,0,0,0,3.287,4.3,7.524,7.524,0,0,0,1.061,6.561a.551.551,0,0,0,.076.683L2.3,8.41l-.735.735-.52-.52a.551.551,0,0,0-.93.284,5.813,5.813,0,0,0,.125,2.821.55.55,0,0,0,.137.227L3.27,14.847a.551.551,0,0,0,.227.137,5.522,5.522,0,0,0,1.634.241,6.21,6.21,0,0,0,1.187-.117.551.551,0,0,0,.284-.93l-.52-.52.735-.736L7.984,14.09a.551.551,0,0,0,.683.076,7.522,7.522,0,0,0,2.263-2.226.551.551,0,0,0-.071-.691L9.676,10.066l.735-.735.573.573a.551.551,0,0,0,.927-.271,5.916,5.916,0,0,0-.023-2.716.551.551,0,0,0-.144-.253l-.594-.594,3.917-3.917A.55.55,0,0,0,15.067,1.373Z" transform="translate(-0.003)"/>
</svg>
