<svg id="instagram-fill-svgrepo-com" xmlns="http://www.w3.org/2000/svg" width="48.806" height="48.806" viewBox="0 0 48.806 48.806">
  <path id="Path_274" data-name="Path 274" d="M0,0H45V45H0Z" fill="none"/>
  <path id="Path_275" data-name="Path 275" d="M24.5,2c6.113,0,6.876.022,9.274.135a16.576,16.576,0,0,1,5.463,1.046,10.97,10.97,0,0,1,3.987,2.594,11.043,11.043,0,0,1,2.594,3.987,16.621,16.621,0,0,1,1.046,5.463c.106,2.4.135,3.161.135,9.275s-.022,6.876-.135,9.274a16.634,16.634,0,0,1-1.046,5.463,11.487,11.487,0,0,1-6.581,6.581,16.621,16.621,0,0,1-5.463,1.046c-2.4.106-3.161.135-9.274.135s-6.876-.022-9.275-.135a16.634,16.634,0,0,1-5.463-1.046,11.487,11.487,0,0,1-6.581-6.581,16.563,16.563,0,0,1-1.046-5.463C2.029,31.376,2,30.613,2,24.5s.022-6.876.135-9.275A16.563,16.563,0,0,1,3.181,9.762,10.98,10.98,0,0,1,5.776,5.776,11.018,11.018,0,0,1,9.762,3.181a16.563,16.563,0,0,1,5.463-1.046C17.624,2.029,18.387,2,24.5,2Zm0,11.25A11.25,11.25,0,1,0,35.75,24.5,11.25,11.25,0,0,0,24.5,13.25Zm14.625-.562A2.812,2.812,0,1,0,36.313,15.5,2.812,2.812,0,0,0,39.125,12.688ZM24.5,17.75a6.75,6.75,0,1,1-6.75,6.75A6.75,6.75,0,0,1,24.5,17.75Z" transform="translate(1.806 1.806)"/>
</svg>
