<svg xmlns="http://www.w3.org/2000/svg" width="20.063" height="26.237" viewBox="0 0 20.063 26.237">
  <g id="Kandoo1_" data-name="Kandoo1+" transform="translate(-19.8 822.338)">
    <path id="flag-svgrepo-com" d="M72.376.593a.71.71,0,0,0-.687-.037L68.72,2a7.427,7.427,0,0,1-6.647-.083,7.427,7.427,0,0,0-7.082.146V1.173a1.173,1.173,0,1,0-2.345,0V25.064a1.173,1.173,0,1,0,2.345,0V12.949a7.427,7.427,0,0,1,7.082-.146,7.427,7.427,0,0,0,6.647.083l3.287-1.594a1.247,1.247,0,0,0,.7-1.122V1.2A.71.71,0,0,0,72.376.593Z" transform="translate(-32.846 -822.338)" fill="#e3170a"/>
  </g>
</svg>
