<svg id="location-svgrepo-com_4_" data-name="location-svgrepo-com (4)" xmlns="http://www.w3.org/2000/svg" width="25.642" height="38.316" viewBox="0 0 25.642 38.316">
  <path id="Path_235" data-name="Path 235" d="M67.464,0A12.835,12.835,0,0,0,54.643,12.821a12.7,12.7,0,0,0,1.241,5.508c.017.037.034.073.053.11l9.687,18.756a2.071,2.071,0,0,0,3.681,0l9.684-18.751c.017-.032.032-.065.047-.1a12.7,12.7,0,0,0,1.249-5.525A12.835,12.835,0,0,0,67.464,0Zm0,19.532a6.711,6.711,0,1,1,6.711-6.711A6.718,6.718,0,0,1,67.464,19.532Z" transform="translate(-54.643 0)" fill="#1a73e9"/>
</svg>
