<svg xmlns="http://www.w3.org/2000/svg" xmlns:xlink="http://www.w3.org/1999/xlink" width="250" height="250" viewBox="0 0 250 250">
  <defs>
    <clipPath id="clip-path">
      <path id="Subtraction_6" data-name="Subtraction 6" d="M-2863-11991a125,125,0,0,1,125,125,125,125,0,0,1-125,125,125,125,0,0,1-125-125A125,125,0,0,1-2863-11991Z" transform="translate(3077 12112)" fill="none"/>
    </clipPath>
  </defs>
  <g id="Mask_Group_3" data-name="Mask Group 3" transform="translate(-89 -121)" clip-path="url(#clip-path)">
    <g id="Layer_2" data-name="Layer 2" transform="translate(142.375 150.671)">
      <g id="OBJECTS" transform="translate(-74.8 -50)">
        <circle id="Ellipse_88" data-name="Ellipse 88" cx="124.557" cy="124.557" r="124.557" transform="translate(-29.677 146.48) rotate(-45)" fill="#b9c4e1"/>
        <ellipse id="Ellipse_89" data-name="Ellipse 89" cx="48.449" cy="62.644" rx="48.449" ry="62.644" transform="translate(98.035 63.448)" fill="#fff"/>
        <path id="Path_1777" data-name="Path 1777" d="M112.862,98.6c-40.525,0-76.2,12.386-97.034,31.178a124.5,124.5,0,0,0,194.086,0C189.085,110.984,153.406,98.6,112.862,98.6Z" transform="translate(33.622 94.774)" fill="#fff"/>
        <path id="Path_1778" data-name="Path 1778" d="M76.44,71.631H87.269a18.5,18.5,0,0,1,18.5,18.5v42.1a18.522,18.522,0,0,1-18.5,18.522H76.44a18.5,18.5,0,0,1-18.5-18.5v-42.1a18.5,18.5,0,0,1,18.5-18.522Z" transform="translate(64.735 74.849)" fill="#fff"/>
        <path id="Path_1779" data-name="Path 1779" d="M54.742,66.806c2.827,8.117,1.693,15.887-2.5,17.31S42.336,80.27,39.528,72.038s-1.712-15.887,2.5-17.31S51.915,58.67,54.742,66.806Z" transform="translate(49.986 62.19)" fill="#fff"/>
        <ellipse id="Ellipse_90" data-name="Ellipse 90" cx="15.579" cy="8.059" rx="15.579" ry="8.059" transform="translate(183.129 143.716) rotate(-70.85)" fill="#fff"/>
        <path id="Path_1780" data-name="Path 1780" d="M52.534,93.581C46.245,82.041,39.763,69.982,40.09,56.9S50.361,29.976,63.42,30.534a38.7,38.7,0,0,0,6.828.25c4.52-.635,7.867-4.328,11.54-7.04A30.774,30.774,0,0,1,111.1,20.032c5.885,2.4,10.867,6.6,16.618,9.328a37.409,37.409,0,0,0,34.14-1.385,19.388,19.388,0,0,1-10.021,8.809,18.388,18.388,0,0,0,12.1-.346,20.849,20.849,0,0,1-10.617,9.271l9.944.673a25,25,0,0,1-11.54,8.905l7.809.25A18.368,18.368,0,0,1,146.683,67.27h5.039q-8.232,12.021-16.406,23.907a20.638,20.638,0,0,1-5.52,6.078,19.753,19.753,0,0,1-6.424,2.308,161.562,161.562,0,0,1-49.7,3.231c-5.77-.519-11.54-1.443-16.118-4.943s-6.924-10.29-3.847-15.079" transform="translate(51.54 35.146)" fill="#fff"/>
        <path id="Path_1781" data-name="Path 1781" d="M54.085,113.731a139.332,139.332,0,0,1,2.462-19.58c3.25,3.712,8.751,4.174,13.694,4.366l22.388.923c.866,5.1,1.481,11.079-2.193,14.714a14.58,14.58,0,0,1-6.386,3.154,59.182,59.182,0,0,1-15.387,2.154c-6.193,0-13.579-1.808-15.56-7.693l1.9-1.654" transform="translate(61.164 91.488)" fill="#fff"/>
        <path id="Path_1782" data-name="Path 1782" d="M106.217,113.731a139.309,139.309,0,0,0-2.443-19.58c-3.25,3.712-8.771,4.174-13.694,4.366l-22.33.923c-.866,5.1-1.462,11.079,2.212,14.714a14.5,14.5,0,0,0,6.366,3.154,59.316,59.316,0,0,0,15.387,2.154c6.193,0,13.579-1.808,15.56-7.693l-1.923-1.654" transform="translate(71.503 91.488)" fill="#fff"/>
      </g>
    </g>
  </g>
</svg>
