<svg id="medicine-svgrepo-com" xmlns="http://www.w3.org/2000/svg" width="11.893" height="17.998" viewBox="0 0 11.893 17.998">
  <g id="Group_314" data-name="Group 314">
    <g id="Group_313" data-name="Group 313" transform="translate(0)">
      <path id="Path_362" data-name="Path 362" d="M188.07,214.3h0a.657.657,0,0,0-.657.657v.87h-.856a.657.657,0,0,0-.657.657h0a.657.657,0,0,0,.657.657h.856V218a.657.657,0,0,0,.657.657h0a.657.657,0,0,0,.657-.657v-.856h.856a.657.657,0,0,0,.657-.657h0a.657.657,0,0,0-.657-.657h-.856v-.87A.657.657,0,0,0,188.07,214.3Z" transform="translate(-182.127 -206.43)"/>
      <rect id="Rectangle_147" data-name="Rectangle 147" width="7.493" height="1.671" transform="translate(2.2)"/>
      <path id="Path_363" data-name="Path 363" d="M127.989,67.655,125.421,65.4h-6.355L116.5,67.655a.623.623,0,0,0-.2.444v12.2a.81.81,0,0,0,.882.7H127.31a.81.81,0,0,0,.882-.7V68.1A.655.655,0,0,0,127.989,67.655Zm-5.745,9.5a4.111,4.111,0,1,1,3.792-4.1A3.957,3.957,0,0,1,122.244,77.151Z" transform="translate(-116.3 -62.998)"/>
    </g>
  </g>
</svg>
