<svg xmlns="http://www.w3.org/2000/svg" width="23.891" height="25" viewBox="0 0 23.891 25">
  <path id="megaphone-svgrepo-com" d="M23.379,9.376c-2.2-5.12-5.739-9.015-7.53-8.288C12.808,2.325,17.66,8.26,2.726,14.329c-1.29.526-1.617,2.622-1.076,3.878s2.3,2.5,3.593,1.978c.224-.092,1.043-.356,1.043-.356.921,1.238,1.885.5,2.228,1.289l1.608,3.695c.3.7.993,1.343,1.493,1.153l2.848-1.082a.94.94,0,0,0,.606-1.283c-.214-.493-1.092-.638-1.343-1.213s-1.068-2.414-1.3-2.995c-.319-.789.36-1.432,1.347-1.533,6.8-.711,8.069,3.489,10.383,2.547,1.788-.729,1.424-5.916-.775-11.032Zm-.765,8.3c-.4.16-3.074-1.947-4.782-5.927s-1.495-7.612-1.1-7.774,3.007,2.385,4.716,6.362S23.01,17.514,22.613,17.677Z" transform="translate(-1.4 -1)" fill="#fff"/>
</svg>
