<svg xmlns="http://www.w3.org/2000/svg" width="35.232" height="24.566" viewBox="0 0 35.232 24.566">
  <g id="menu-svgrepo-com_1_" data-name="menu-svgrepo-com (1)" transform="translate(0 -4.75)">
    <g id="Group_199" data-name="Group 199" transform="translate(0 1.75)">
      <path id="Path_236" data-name="Path 236" d="M34.094,1.75H1.139C.511,1.75,0,2.028,0,2.371V5.129c0,.342.511.621,1.139.621H34.093c.627,0,1.139-.278,1.139-.621V2.371C35.232,2.028,34.721,1.75,34.094,1.75Z" transform="translate(0 1.25)" fill="#fff"/>
      <path id="Path_237" data-name="Path 237" d="M34.094,36.75H1.139c-.628,0-1.139.278-1.139.621v2.759c0,.342.511.621,1.139.621H34.093c.627,0,1.139-.278,1.139-.621V37.371C35.232,37.028,34.721,36.75,34.094,36.75Z" transform="translate(0 -23.467)" fill="#fff"/>
      <path id="Path_238" data-name="Path 238" d="M34.094,71.75H1.139c-.628,0-1.139.278-1.139.621v2.759c0,.342.511.621,1.139.621H34.093c.627,0,1.139-.278,1.139-.621V72.371C35.232,72.028,34.721,71.75,34.094,71.75Z" transform="translate(0 -48.184)" fill="#fff"/>
    </g>
  </g>
</svg>
