<svg id="microphone-svgrepo-com_2_" data-name="microphone-svgrepo-com (2)" xmlns="http://www.w3.org/2000/svg" width="47.386" height="74.418" viewBox="0 0 47.386 74.418">
  <path id="Path_319" data-name="Path 319" d="M164.255,259.619V240.3a2.917,2.917,0,1,1,5.835,0v19.316Z" transform="translate(-143.479 -187.826)" fill="#845c05"/>
  <path id="Path_320" data-name="Path 320" d="M131.023,37.113a16.92,16.92,0,0,1-33.841,0V16.92a16.92,16.92,0,0,1,33.841,0Z" transform="translate(-90.409)" fill="#df9800"/>
  <path id="Path_321" data-name="Path 321" d="M127.573,32,97.182,62.4v.04a16.927,16.927,0,0,0,11.393,16l22.447-22.447V42.243A16.843,16.843,0,0,0,127.573,32Z" transform="translate(-90.409 -25.323)" fill="#ffeeca" opacity="0.15"/>
  <path id="Path_322" data-name="Path 322" d="M104.465,89.522H97.182v3.441h7.283a1.72,1.72,0,0,0,0-3.441Zm1.72-6.63a1.72,1.72,0,0,0-1.72-1.72H97.182v3.441h7.283A1.721,1.721,0,0,0,106.185,82.892Zm-1.72,14.98H97.182v3.44h7.283a1.72,1.72,0,1,0,0-3.44Z" transform="translate(-90.409 -64.226)" fill="#6a4800"/>
  <path id="Path_323" data-name="Path 323" d="M216.153,91.241a1.72,1.72,0,0,0,1.72,1.72h7.283V89.521h-7.283A1.72,1.72,0,0,0,216.153,91.241Zm1.72-6.63h7.283V81.171h-7.283a1.72,1.72,0,0,0,0,3.441Zm-1.72,14.979a1.72,1.72,0,0,0,1.72,1.72h7.283v-3.44h-7.283A1.72,1.72,0,0,0,216.153,99.591Z" transform="translate(-184.542 -64.225)" fill="#6a4800"/>
  <path id="Path_324" data-name="Path 324" d="M88.434,193.226a23.72,23.72,0,0,1-23.693-23.693,2.139,2.139,0,0,1,4.279,0,19.415,19.415,0,0,0,38.829,0,2.139,2.139,0,0,1,4.279,0A23.72,23.72,0,0,1,88.434,193.226Z" transform="translate(-64.741 -132.447)" fill="#6a4800"/>
  <path id="Path_325" data-name="Path 325" d="M140.135,336.557a5.251,5.251,0,0,0-5.251-5.251H118.078a5.251,5.251,0,0,0-5.251,5.251Z" transform="translate(-102.788 -262.139)" fill="#6a4800"/>
</svg>
