<svg id="mortarboard-education-svgrepo-com" xmlns="http://www.w3.org/2000/svg" width="25.471" height="26.527" viewBox="0 0 25.471 26.527">
  <g id="Group_227" data-name="Group 227" transform="translate(0 0)">
    <g id="Group_226" data-name="Group 226">
      <path id="Path_263" data-name="Path 263" d="M24.313,30.64l1.158-.668L12.735,22.623,0,29.972,12.735,37.32l9.841-5.678v4.4a1.427,1.427,0,0,0-.289.872,1.168,1.168,0,1,0,2.316,0,1.428,1.428,0,0,0-.289-.872v-5.4Z" transform="translate(0 -22.623)"/>
    </g>
  </g>
  <g id="Group_229" data-name="Group 229" transform="translate(4.631 12.243)">
    <g id="Group_228" data-name="Group 228">
      <path id="Path_264" data-name="Path 264" d="M101.2,242.726l-8.1-4.676V247.7c0,2.557,3.628,4.629,8.1,4.629s8.1-2.073,8.1-4.629V238.05Z" transform="translate(-93.091 -238.05)"/>
    </g>
  </g>
</svg>
