<svg xmlns="http://www.w3.org/2000/svg" width="16.122" height="16.119" viewBox="0 0 16.122 16.119">
  <g id="move-svgrepo-com" transform="translate(0 -0.036)">
    <path id="Path_517" data-name="Path 517" d="M15.9,7.533,13.775,5.4a.679.679,0,0,0-.961.961l1.03,1.03h-5.1V2.383l.961.961a.679.679,0,1,0,.961-.961L8.54.254c-.261-.261-.571-.32-1.03,0L5.384,2.383a.679.679,0,0,0,.961.961l1.03-1.03v5.08H2.347l.961-.961a.679.679,0,1,0-.961-.961L.218,7.6c-.261.261-.32.571,0,1.03l2.129,2.129A.679.679,0,1,0,3.308,9.8l-1.03-1.03H7.371v5.04l-.957-.961a.679.679,0,0,0-.961.961l2.129,2.129c.261.261.571.32,1.03,0l2.129-2.129a.679.679,0,0,0-.961-.961l-1.03,1.03V8.767h5.027l-.961.961a.679.679,0,0,0,.961.961l2.129-2.129C16.165,8.3,16.221,7.992,15.9,7.533Z" transform="translate(0 0)"/>
  </g>
</svg>
