<svg id="note-svgrepo-com_3_" data-name="note-svgrepo-com (3)" xmlns="http://www.w3.org/2000/svg" width="74.421" height="74.418" viewBox="0 0 74.421 74.418">
  <path id="Path_326" data-name="Path 326" d="M47.43,74.428H2.723A2.723,2.723,0,0,1,0,71.706V2.733A2.723,2.723,0,0,1,2.723.01H71.7a2.723,2.723,0,0,1,2.723,2.723V47.44a2.723,2.723,0,0,1-.8,1.925L49.355,73.631A2.723,2.723,0,0,1,47.43,74.428Z" transform="translate(0 -0.01)" fill="#ffcc5c"/>
  <g id="Group_276" data-name="Group 276" transform="translate(14.432 0)">
    <path id="Path_327" data-name="Path 327" d="M290.476.01H255.99V74.428h10.221a2.722,2.722,0,0,0,1.925-.8L292.4,49.365a2.723,2.723,0,0,0,.8-1.925V2.733A2.723,2.723,0,0,0,290.476.01Z" transform="translate(-233.213 -0.01)" fill="#ffbf31"/>
    <path id="Path_328" data-name="Path 328" d="M142.121,125.028H102.013a2.723,2.723,0,1,1,0-5.445h40.109a2.723,2.723,0,1,1,0,5.445Z" transform="translate(-99.29 -102.203)" fill="#ffbf31"/>
    <path id="Path_329" data-name="Path 329" d="M142.121,224.561H102.013a2.723,2.723,0,1,1,0-5.445h40.109a2.723,2.723,0,1,1,0,5.445Z" transform="translate(-99.29 -187.268)" fill="#ffbf31"/>
  </g>
  <g id="Group_277" data-name="Group 277" transform="translate(37.209 17.38)">
    <path id="Path_330" data-name="Path 330" d="M310.3,337.3a2.724,2.724,0,0,1-2.722-2.723V310.308a2.723,2.723,0,0,1,2.723-2.723h24.266a2.725,2.725,0,0,1,1.925,4.648L312.225,336.5A2.722,2.722,0,0,1,310.3,337.3Z" transform="translate(-300.079 -280.258)" fill="#f4a905"/>
    <path id="Path_331" data-name="Path 331" d="M276.044,119.583H255.99v5.445h20.054a2.723,2.723,0,1,0,0-5.445Z" transform="translate(-255.99 -119.583)" fill="#f4a905"/>
    <path id="Path_332" data-name="Path 332" d="M276.044,219.116H255.99v5.445h20.054a2.723,2.723,0,1,0,0-5.445Z" transform="translate(-255.99 -204.649)" fill="#f4a905"/>
  </g>
</svg>
