<svg xmlns="http://www.w3.org/2000/svg" width="14.742" height="13.514" viewBox="0 0 14.742 13.514">
  <g id="noun-migration-2781863" transform="translate(-87.5 -50.84)">
    <path id="Path_1768" data-name="Path 1768" d="M475.957,192.5a2.65,2.65,0,0,0-.662,5.206v3.4a.662.662,0,1,0,1.325,0v-3.4a2.65,2.65,0,0,0-.662-5.206Z" transform="translate(-376.333 -137.419)"/>
    <path id="Path_1769" data-name="Path 1769" d="M90.285,58.625V56.411a2.089,2.089,0,1,0-1.393,0v2.214a.7.7,0,1,0,1.393,0Z" transform="translate(0 -1.512)"/>
    <path id="Path_1770" data-name="Path 1770" d="M148.362,249.822l-7.739-4.791a.429.429,0,1,0-.454.729l7.743,4.778-.227.364,1.71.064-.81-1.5Z" transform="translate(-50.832 -186.612)"/>
  </g>
</svg>
