<svg xmlns="http://www.w3.org/2000/svg" width="22.5" height="22.5" viewBox="0 0 22.5 22.5">
  <path id="opening-aperture-svgrepo-com" d="M18.778,3.222A11,11,0,1,0,3.222,18.778,11,11,0,1,0,18.778,3.222Zm2.29,5.654a.36.36,0,0,0-.044.037l-3.8,3.8v-9.9a10.432,10.432,0,0,1,1.045.914A10.216,10.216,0,0,1,21.068,8.876ZM8.945,16.516,5.484,13.055V8.578L8.578,5.484h4.476l3.461,3.461v4.476l-3.094,3.094H8.945Zm7.57-14.2V7.938l-7.1-7.1A10.431,10.431,0,0,1,11,.713,10.218,10.218,0,0,1,16.516,2.313ZM3.726,3.726A10.222,10.222,0,0,1,8.571,1l3.771,3.771H2.811A10.455,10.455,0,0,1,3.726,3.726ZM2.313,5.484H7.57L.789,12.265A10.451,10.451,0,0,1,.713,11,10.218,10.218,0,0,1,2.313,5.484ZM.932,13.124a.361.361,0,0,0,.044-.037l3.8-3.8v9.9a10.437,10.437,0,0,1-1.045-.914A10.216,10.216,0,0,1,.932,13.124Zm4.552,6.564V14.062l7.1,7.1A10.424,10.424,0,0,1,11,21.287,10.218,10.218,0,0,1,5.484,19.687Zm12.79-1.413A10.221,10.221,0,0,1,13.429,21L9.658,17.229h9.53A10.425,10.425,0,0,1,18.274,18.274Zm1.413-1.758H14.429l6.781-6.781A10.46,10.46,0,0,1,21.287,11,10.218,10.218,0,0,1,19.687,16.516Z" transform="translate(0.25 0.25)" stroke="#000" stroke-width="0.5"/>
</svg>
