<svg xmlns="http://www.w3.org/2000/svg" width="142.619" height="162.994" viewBox="0 0 142.619 162.994">
  <g id="pdf-svgrepo-com_1_" data-name="pdf-svgrepo-com (1)" transform="translate(-19.329)">
    <path id="Path_514" data-name="Path 514" d="M29.516,0h86.555l45.878,45.7V152.807a10.187,10.187,0,0,1-10.187,10.187H29.516a10.187,10.187,0,0,1-10.187-10.187V10.187A10.188,10.188,0,0,1,29.516,0Z" fill="#e2574c"/>
    <path id="Path_515" data-name="Path 515" d="M248.651,45.933H213.144a10.19,10.19,0,0,1-10.187-10.187V.193Z" transform="translate(-86.85 -0.091)" fill="#b53629"/>
    <path id="Path_516" data-name="Path 516" d="M155.78,141.283a2.961,2.961,0,0,0,0-5.863h-9.719a3.036,3.036,0,0,0-2.959,3.311v23.884c0,2.129,1.212,3.311,2.852,3.311s2.848-1.182,2.848-3.311v-6.555h5.878a2.759,2.759,0,0,0,2.735-2.975,2.709,2.709,0,0,0-2.735-2.893H148.8v-8.908Zm-32.848-5.863h-7.111a3.145,3.145,0,0,0-3.3,3.29v23.925a3.133,3.133,0,0,0,3.382,3.2h7.462c8.832,0,14.664-5.812,14.664-14.782C138.024,141.573,132.533,135.42,122.932,135.42Zm.342,24.521h-4.335V141.319h3.907c5.914,0,8.486,3.968,8.486,9.443C131.331,155.886,128.8,159.941,123.273,159.941ZM97.224,135.42H90.18c-1.992,0-3.1,1.314-3.1,3.311v23.884c0,2.129,1.273,3.311,2.985,3.311s2.985-1.182,2.985-3.311v-6.973h4.416a9.644,9.644,0,0,0,9.948-10.07A9.756,9.756,0,0,0,97.224,135.42Zm-.117,14.619h-4.06v-9.011h4.06c2.506,0,4.1,1.956,4.1,4.508S99.614,150.039,97.107,150.039Z" transform="translate(-32.043 -64.049)" fill="#fff"/>
  </g>
</svg>
