<svg xmlns="http://www.w3.org/2000/svg" width="52.354" height="59.833" viewBox="0 0 52.354 59.833">
  <g id="pdf-svgrepo-com" transform="translate(-19.329)">
    <path id="Path_386" data-name="Path 386" d="M23.069,0H54.842L71.683,16.776V56.094a3.74,3.74,0,0,1-3.74,3.74H23.069a3.74,3.74,0,0,1-3.74-3.74V3.74A3.74,3.74,0,0,1,23.069,0Z" fill="#e2574c"/>
    <path id="Path_387" data-name="Path 387" d="M219.731,16.984H206.7a3.741,3.741,0,0,1-3.74-3.74V.193Z" transform="translate(-148.102 -0.156)" fill="#b53629"/>
    <path id="Path_388" data-name="Path 388" d="M112.3,137.572a1.087,1.087,0,0,0,0-2.152H108.73a1.115,1.115,0,0,0-1.086,1.215V145.4c0,.782.445,1.215,1.047,1.215s1.045-.434,1.045-1.215V143h2.158a1.013,1.013,0,0,0,1-1.092.994.994,0,0,0-1-1.062h-2.158v-3.27Zm-12.058-2.152h-2.61a1.154,1.154,0,0,0-1.212,1.208v8.783a1.15,1.15,0,0,0,1.241,1.176H100.4a5.081,5.081,0,0,0,5.383-5.426C105.78,137.679,103.764,135.42,100.239,135.42Zm.125,9H98.774v-6.836h1.434c2.171,0,3.115,1.457,3.115,3.467C103.323,142.933,102.4,144.421,100.365,144.421Zm-9.562-9H88.217a1.087,1.087,0,0,0-1.139,1.215V145.4a1.1,1.1,0,1,0,2.191,0v-2.56H90.89a3.54,3.54,0,0,0,3.652-3.7A3.581,3.581,0,0,0,90.8,135.42Zm-.043,5.366h-1.49v-3.308h1.49a1.661,1.661,0,0,1,0,3.308Z" transform="translate(-54.642 -109.22)" fill="#fff"/>
  </g>
</svg>
