<svg xmlns="http://www.w3.org/2000/svg" width="11.239" height="11.239" viewBox="0 0 11.239 11.239">
  <g id="picture-svgrepo-com_1_" data-name="picture-svgrepo-com (1)" transform="translate(0.2 0.2)">
    <g id="Group_286" data-name="Group 286">
      <path id="Path_347" data-name="Path 347" d="M0,9.7a1.144,1.144,0,0,0,1.143,1.143H9.7A1.144,1.144,0,0,0,10.839,9.7V1.143A1.144,1.144,0,0,0,9.7,0H1.143A1.144,1.144,0,0,0,0,1.143Zm9.7.6H1.143a.6.6,0,0,1-.6-.6V8.268L2.6,6.212,4.354,7.969a.27.27,0,0,0,.383,0L7.909,4.8,10.3,7.185V9.7A.6.6,0,0,1,9.7,10.3ZM1.143.543H9.7a.6.6,0,0,1,.6.6V6.416L8.1,4.221a.27.27,0,0,0-.383,0L4.545,7.393,2.788,5.636a.27.27,0,0,0-.383,0L.543,7.5V1.143A.6.6,0,0,1,1.143.543Z" stroke="#000" stroke-width="0.4"/>
      <path id="Path_348" data-name="Path 348" d="M90.78,74.26a1.38,1.38,0,1,0-1.38-1.38A1.381,1.381,0,0,0,90.78,74.26Zm0-2.217a.837.837,0,1,1-.837.837A.838.838,0,0,1,90.78,72.043Z" transform="translate(-87.42 -69.916)" stroke="#000" stroke-width="0.4"/>
    </g>
  </g>
</svg>
