<svg id="production" xmlns="http://www.w3.org/2000/svg" width="16.604" height="16.604" viewBox="0 0 16.604 16.604">
  <g id="layer">
    <path id="Shape" d="M5.767,7.612,11.3,10.379l5.535-2.767L11.3,4.845Zm5.985-4.5,7.373,3.76a.817.817,0,0,1,.361,1.159.894.894,0,0,1-.361.331l-7.373,3.76a1,1,0,0,1-.9,0L3.478,8.357A.817.817,0,0,1,3.117,7.2a.894.894,0,0,1,.361-.331l7.373-3.76A1,1,0,0,1,11.753,3.107Zm0,12.7a.986.986,0,0,1-.9,0L3.478,11.98A.838.838,0,0,1,3.117,10.8a.9.9,0,0,1,.361-.337.754.754,0,0,1,.7,0l6.677,3.464a.986.986,0,0,0,.9,0l6.677-3.464a.754.754,0,0,1,.7,0,.838.838,0,0,1,.361,1.179.9.9,0,0,1-.361.337Zm0,3.69a.986.986,0,0,1-.9,0L3.478,15.67a.838.838,0,0,1-.361-1.179.9.9,0,0,1,.361-.337.754.754,0,0,1,.7,0l6.677,3.464a.986.986,0,0,0,.9,0l6.677-3.464a.754.754,0,0,1,.7,0,.838.838,0,0,1,.361,1.179.9.9,0,0,1-.361.337Z" transform="translate(-3 -3)"/>
  </g>
</svg>
