<svg id="qr-code" xmlns="http://www.w3.org/2000/svg" width="58.163" height="58.162" viewBox="0 0 58.163 58.162">
  <g id="Group_59" data-name="Group 59" transform="translate(37.091 0)">
    <path id="Path_47" data-name="Path 47" d="M33.953,21.074a2.423,2.423,0,0,1-2.423-2.423V7.164a2.319,2.319,0,0,0-2.314-2.317H17.728a2.423,2.423,0,1,1,0-4.847H29.215a7.17,7.17,0,0,1,7.161,7.164V18.651A2.423,2.423,0,0,1,33.953,21.074Z" transform="translate(-15.305 0)"/>
  </g>
  <g id="Group_60" data-name="Group 60" transform="translate(0 0)">
    <path id="Path_48" data-name="Path 48" d="M2.423,21.074A2.423,2.423,0,0,1,0,18.651V7.164A7.17,7.17,0,0,1,7.161,0H18.648a2.423,2.423,0,0,1,0,4.847H7.161A2.319,2.319,0,0,0,4.847,7.164V18.651A2.423,2.423,0,0,1,2.423,21.074Z" transform="translate(0 0)"/>
  </g>
  <g id="Group_61" data-name="Group 61" transform="translate(37.091 37.088)">
    <path id="Path_49" data-name="Path 49" d="M29.215,36.378H17.728a2.423,2.423,0,0,1,0-4.847H29.215a2.319,2.319,0,0,0,2.314-2.317V17.727a2.423,2.423,0,1,1,4.847,0V29.214A7.17,7.17,0,0,1,29.215,36.378Z" transform="translate(-15.305 -15.304)"/>
  </g>
  <g id="Group_62" data-name="Group 62" transform="translate(0 37.088)">
    <path id="Path_50" data-name="Path 50" d="M18.648,36.378H7.161A7.17,7.17,0,0,1,0,29.214V17.727a2.423,2.423,0,0,1,4.847,0V29.214a2.319,2.319,0,0,0,2.314,2.317H18.648a2.423,2.423,0,0,1,0,4.847Z" transform="translate(0 -15.304)"/>
  </g>
  <g id="Group_63" data-name="Group 63" transform="translate(8.482 8.482)">
    <path id="Path_51" data-name="Path 51" d="M17.987,22.061H5.923A2.423,2.423,0,0,1,3.5,19.638V5.923A2.423,2.423,0,0,1,5.923,3.5H17.987a2.423,2.423,0,0,1,2.423,2.423V19.638A2.424,2.424,0,0,1,17.987,22.061Zm-9.64-4.847h7.217V8.347H8.347Z" transform="translate(-3.5 -3.5)"/>
  </g>
  <g id="Group_64" data-name="Group 64" transform="translate(33.322 32.716)">
    <path id="Path_52" data-name="Path 52" d="M27.685,30.464H16.173a2.423,2.423,0,0,1-2.423-2.423V20.329a2.423,2.423,0,0,1,4.847,0v5.288h6.664v-7.27H22.4a2.423,2.423,0,1,1,0-4.847h5.288a2.423,2.423,0,0,1,2.423,2.423V28.041A2.423,2.423,0,0,1,27.685,30.464Z" transform="translate(-13.75 -13.5)"/>
  </g>
  <g id="Group_65" data-name="Group 65" transform="translate(34.919 8.482)">
    <path id="Path_53" data-name="Path 53" d="M26.747,18.261H16.832a2.423,2.423,0,0,1-2.423-2.423V5.923A2.423,2.423,0,0,1,16.832,3.5h9.914A2.423,2.423,0,0,1,29.17,5.923v9.914A2.423,2.423,0,0,1,26.747,18.261Zm-7.491-4.847h5.067V8.347H19.256Z" transform="translate(-14.409 -3.5)"/>
  </g>
  <g id="Group_66" data-name="Group 66" transform="translate(8.482 10.685)">
    <path id="Path_54" data-name="Path 54" d="M25.258,27.982H5.923a2.423,2.423,0,1,1,0-4.847H22.834V6.832a2.423,2.423,0,0,1,4.847,0V25.558A2.424,2.424,0,0,1,25.258,27.982Z" transform="translate(-3.5 -4.409)"/>
  </g>
  <g id="Group_67" data-name="Group 67" transform="translate(34.534 25.502)">
    <path id="Path_55" data-name="Path 55" d="M16.673,18.673A2.423,2.423,0,0,1,14.25,16.25v-3.3a2.423,2.423,0,0,1,2.423-2.423H27.579a2.423,2.423,0,1,1,0,4.847H19.1v.88A2.423,2.423,0,0,1,16.673,18.673Z" transform="translate(-14.25 -10.523)"/>
  </g>
  <g id="Group_68" data-name="Group 68" transform="translate(26.711 36.179)">
    <path id="Path_56" data-name="Path 56" d="M13.445,25.282a2.423,2.423,0,0,1-2.423-2.423V17.352a2.423,2.423,0,1,1,4.847,0v5.506A2.423,2.423,0,0,1,13.445,25.282Z" transform="translate(-11.022 -14.929)"/>
  </g>
  <g id="Group_69" data-name="Group 69" transform="translate(8.482 36.022)">
    <path id="Path_57" data-name="Path 57" d="M17.435,28.522H5.923A2.423,2.423,0,0,1,3.5,26.1V17.287a2.423,2.423,0,0,1,2.423-2.423H17.435a2.423,2.423,0,0,1,2.423,2.423V26.1A2.423,2.423,0,0,1,17.435,28.522ZM8.347,23.676h6.664V19.711H8.347Z" transform="translate(-3.5 -14.864)"/>
  </g>
</svg>
