<svg id="refresh-svgrepo-com" xmlns="http://www.w3.org/2000/svg" width="17.843" height="17.728" viewBox="0 0 17.843 17.728">
  <g id="Group_271" data-name="Group 271">
    <g id="Group_270" data-name="Group 270" transform="translate(0 0)">
      <path id="Path_300" data-name="Path 300" d="M28,239.8h-.044a.742.742,0,0,0-.721.721,7.346,7.346,0,0,1-13.164,4.326l2.152.452a.744.744,0,0,0,.306-1.457l-3.783-.794a.738.738,0,0,0-.881.579l-.787,3.809a.743.743,0,0,0,1.457.3l.4-1.934a8.833,8.833,0,0,0,15.789-5.236A.752.752,0,0,0,28,239.8Z" transform="translate(-11.067 -231.469)"/>
      <path id="Path_301" data-name="Path 301" d="M28.329,12.114a.739.739,0,0,0-.892.553l-.452,1.923A8.834,8.834,0,0,0,11.062,19.4a.742.742,0,0,0,.7.787H11.8a.748.748,0,0,0,.743-.7A7.343,7.343,0,0,1,25.82,15.522l-2.138-.51a.743.743,0,1,0-.346,1.446l3.762.9a.736.736,0,0,0,.9-.553l.889-3.791a.744.744,0,0,0-.553-.9Z" transform="translate(-11.06 -11.007)"/>
    </g>
  </g>
</svg>
