<svg xmlns="http://www.w3.org/2000/svg" width="20.33" height="20.2" viewBox="0 0 20.33 20.2">
  <g id="refresh-svgrepo-com" transform="translate(0 0)">
    <g id="Group_271" data-name="Group 271" transform="translate(0 0)">
      <g id="Group_270" data-name="Group 270">
        <path id="Path_300" data-name="Path 300" d="M30.367,239.8h-.05a.846.846,0,0,0-.822.822,8.37,8.37,0,0,1-15,4.929l2.452.514a.848.848,0,1,0,.349-1.66l-4.311-.9a.841.841,0,0,0-1,.66l-.9,4.34a.847.847,0,1,0,1.66.34l.456-2.2a10.065,10.065,0,0,0,17.991-5.966A.857.857,0,0,0,30.367,239.8Z" transform="translate(-11.067 -230.307)" fill="#ffb004"/>
        <path id="Path_301" data-name="Path 301" d="M30.737,12.268a.842.842,0,0,0-1.017.631l-.514,2.191a10.066,10.066,0,0,0-18.144,5.485.846.846,0,0,0,.8.9h.05a.852.852,0,0,0,.846-.8,8.367,8.367,0,0,1,15.124-4.523l-2.436-.581a.847.847,0,1,0-.394,1.647l4.286,1.021a.839.839,0,0,0,1.021-.631l1.012-4.319a.848.848,0,0,0-.631-1.021Z" transform="translate(-11.06 -11.007)" fill="#ffb004"/>
      </g>
    </g>
  </g>
</svg>
