<svg xmlns="http://www.w3.org/2000/svg" width="228.065" height="188.099" viewBox="0 0 228.065 188.099">
  <g id="scan-svgrepo-com" transform="translate(0.25 -1.749)">
    <path id="Path_242" data-name="Path 242" d="M226.065,13.014H1.5" transform="translate(0 91.594)" fill="none" stroke="#130f26" stroke-linecap="round" stroke-linejoin="round" stroke-width="3.5"/>
    <path id="Path_243" data-name="Path 243" d="M68.586,59.588V38.836A35.436,35.436,0,0,0,33.25,3.5H15.781" transform="translate(137.486 0)" fill="none" stroke="#130f26" stroke-linecap="round" stroke-linejoin="round" stroke-width="3.5" opacity="0.4"/>
    <path id="Path_244" data-name="Path 244" d="M3.382,59.588v-20.8A35.283,35.283,0,0,1,38.629,3.511L56.486,3.5" transform="translate(18.114 0)" fill="none" stroke="#130f26" stroke-linecap="round" stroke-linejoin="round" stroke-width="3.5" opacity="0.4"/>
    <path id="Path_245" data-name="Path 245" d="M68.586,13.014V61.165A35.443,35.443,0,0,1,33.25,96.5H15.781" transform="translate(137.486 91.595)" fill="none" stroke="#130f26" stroke-linecap="round" stroke-linejoin="round" stroke-width="3.5"/>
    <path id="Path_246" data-name="Path 246" d="M3.382,13.014V61.209A35.284,35.284,0,0,0,38.629,96.491l17.857.011" transform="translate(18.114 91.595)" fill="none" stroke="#130f26" stroke-linecap="round" stroke-linejoin="round" stroke-width="3.5"/>
  </g>
</svg>
