<svg xmlns="http://www.w3.org/2000/svg" width="24.188" height="25.538" viewBox="0 0 24.188 25.538">
  <path id="setting-svgrepo-com" d="M100.708,74.342a3.2,3.2,0,1,0,2.258.936A3.167,3.167,0,0,0,100.708,74.342Zm11.768,6.722-1.867-1.6a10.176,10.176,0,0,0,0-3.294l1.867-1.6a.914.914,0,0,0,.265-1l-.026-.074a12.63,12.63,0,0,0-2.272-3.93l-.051-.06a.917.917,0,0,0-1-.271l-2.318.825a9.967,9.967,0,0,0-2.843-1.641L103.782,66a.915.915,0,0,0-.736-.734l-.077-.014a12.862,12.862,0,0,0-4.533,0l-.077.014a.915.915,0,0,0-.736.734l-.451,2.435a10.088,10.088,0,0,0-2.823,1.635l-2.335-.831a.913.913,0,0,0-1,.271l-.051.06a12.728,12.728,0,0,0-2.272,3.93l-.026.074a.917.917,0,0,0,.265,1l1.89,1.613a10.034,10.034,0,0,0-.131,1.627,9.931,9.931,0,0,0,.131,1.627l-1.884,1.613a.914.914,0,0,0-.265,1l.026.074a12.663,12.663,0,0,0,2.272,3.93l.051.06a.917.917,0,0,0,1,.271l2.335-.831A9.884,9.884,0,0,0,97.177,87.2l.451,2.435a.915.915,0,0,0,.736.734l.077.014a12.794,12.794,0,0,0,4.533,0l.077-.014a.915.915,0,0,0,.736-.734l.448-2.423a10.034,10.034,0,0,0,2.843-1.641l2.318.825a.913.913,0,0,0,1-.271l.051-.06a12.728,12.728,0,0,0,2.272-3.93l.026-.074A.921.921,0,0,0,112.476,81.064Zm-11.768,1.49a5.018,5.018,0,1,1,5.018-5.018A5.017,5.017,0,0,1,100.708,82.554Z" transform="translate(-88.609 -65.05)"/>
</svg>
