<svg xmlns="http://www.w3.org/2000/svg" width="16.159" height="16.159" viewBox="0 0 16.159 16.159">
  <g id="sickness-svgrepo-com" transform="translate(0.2 0.2)">
    <path id="Path_302" data-name="Path 302" d="M7.879,0A7.893,7.893,0,0,0,.24,5.946a.328.328,0,0,0-.019.08,7.87,7.87,0,0,0,1.527,6.8.331.331,0,0,0,.06.074A7.878,7.878,0,1,0,7.879,0Zm0,.661a7.231,7.231,0,0,1,6.935,5.214L11.277,7.712a1.807,1.807,0,0,0-1.3-.555H5.785a1.807,1.807,0,0,0-1.318.57L.939,5.895A7.231,7.231,0,0,1,7.879.661ZM4.633,11.735V8.97A1.153,1.153,0,0,1,5.785,7.818H9.974a1.15,1.15,0,0,1,.923.464h0a.332.332,0,0,0,.044.064,1.144,1.144,0,0,1,.184.624v2.766a1.153,1.153,0,0,1-1.151,1.151H5.785A1.153,1.153,0,0,1,4.633,11.735ZM.783,6.558,4.107,8.285a1.8,1.8,0,0,0-.135.684v2.766a1.8,1.8,0,0,0,.1.587H2.194A7.211,7.211,0,0,1,.783,6.558Zm2,6.425H4.473a1.807,1.807,0,0,0,1.312.564H9.974a1.807,1.807,0,0,0,1.312-.564h1.693a7.207,7.207,0,0,1-10.2,0Zm10.784-.661H11.688a1.8,1.8,0,0,0,.1-.587V8.97a1.8,1.8,0,0,0-.142-.7l3.328-1.729a7.21,7.21,0,0,1-1.408,5.785Z" stroke="#000" stroke-width="0.4"/>
    <path id="Path_303" data-name="Path 303" d="M71.689,101.971a2.813,2.813,0,0,0,.286.012,4.176,4.176,0,0,0,2.93-1.167.33.33,0,0,0-.467-.467,3.6,3.6,0,0,1-2.677.965.33.33,0,0,0-.071.657Z" transform="translate(-68.249 -95.835)" stroke="#000" stroke-width="0.4"/>
    <path id="Path_304" data-name="Path 304" d="M207.4,101.981a2.82,2.82,0,0,0,.286-.012.33.33,0,0,0-.071-.657,3.6,3.6,0,0,1-2.678-.965.33.33,0,0,0-.467.467A4.175,4.175,0,0,0,207.4,101.981Z" transform="translate(-195.367 -95.833)" stroke="#000" stroke-width="0.4"/>
  </g>
</svg>
