<svg xmlns="http://www.w3.org/2000/svg" width="18.16" height="18.16" viewBox="0 0 18.16 18.16">
  <g id="sickness-svgrepo-com" transform="translate(0.2 0.2)">
    <path id="Path_302" data-name="Path 302" d="M8.88,0A8.9,8.9,0,0,0,.271,6.7a.369.369,0,0,0-.022.09A8.869,8.869,0,0,0,1.969,14.45a.374.374,0,0,0,.067.083A8.878,8.878,0,1,0,8.88,0Zm0,.745A8.15,8.15,0,0,1,16.7,6.621L12.709,8.692a2.036,2.036,0,0,0-1.469-.625H6.52a2.037,2.037,0,0,0-1.485.643L1.058,6.643A8.15,8.15,0,0,1,8.88.745ZM5.222,13.226V10.109a1.3,1.3,0,0,1,1.3-1.3h4.721a1.3,1.3,0,0,1,1.04.523h0a.374.374,0,0,0,.05.072,1.289,1.289,0,0,1,.208.7v3.117a1.3,1.3,0,0,1-1.3,1.3H6.519A1.3,1.3,0,0,1,5.222,13.226ZM.882,7.391,4.629,9.338a2.031,2.031,0,0,0-.152.771v3.117a2.033,2.033,0,0,0,.111.662H2.473a8.127,8.127,0,0,1-1.591-6.5Zm2.251,7.241H5.041a2.036,2.036,0,0,0,1.479.636h4.721a2.036,2.036,0,0,0,1.479-.636h1.908a8.122,8.122,0,0,1-11.494,0Zm12.154-.745H13.172a2.033,2.033,0,0,0,.111-.662V10.109a2.032,2.032,0,0,0-.16-.793l3.751-1.949a8.126,8.126,0,0,1-1.587,6.52Z" fill="#adadad" stroke="#adadad" stroke-width="0.4"/>
    <path id="Path_303" data-name="Path 303" d="M71.689,101.971a2.813,2.813,0,0,0,.286.012,4.176,4.176,0,0,0,2.93-1.167.33.33,0,0,0-.467-.467,3.6,3.6,0,0,1-2.677.965.33.33,0,0,0-.071.657Z" transform="translate(-67.731 -95.205)" fill="#adadad" stroke="#adadad" stroke-width="0.4"/>
    <path id="Path_304" data-name="Path 304" d="M207.4,101.981a2.82,2.82,0,0,0,.286-.012.33.33,0,0,0-.071-.657,3.6,3.6,0,0,1-2.678-.965.33.33,0,0,0-.467.467A4.175,4.175,0,0,0,207.4,101.981Z" transform="translate(-193.883 -95.203)" fill="#adadad" stroke="#adadad" stroke-width="0.4"/>
  </g>
</svg>
