<svg xmlns="http://www.w3.org/2000/svg" width="11.199" height="14.061" viewBox="0 0 11.199 14.061">
  <g id="trash-svgrepo-com" transform="translate(-5.025)">
    <path id="Path_234" data-name="Path 234" d="M14.845,1.657H13.2a.4.4,0,0,0,.01-.047A1.722,1.722,0,0,0,11.4,0H9.5A1.723,1.723,0,0,0,7.691,1.61a.386.386,0,0,0,.011.047h-1.3A1.311,1.311,0,0,0,5.025,2.884v.477h11.2V2.884A1.309,1.309,0,0,0,14.845,1.657ZM8.612,1.61A.848.848,0,0,1,9.5.818h1.9a.848.848,0,0,1,.892.792c0,.017.009.031.01.047H8.6A.4.4,0,0,0,8.612,1.61ZM5.025,12.835a1.311,1.311,0,0,0,1.381,1.227h8.438a1.311,1.311,0,0,0,1.381-1.227V4.179H5.025ZM13.847,5.61a.463.463,0,0,1,.92,0v7.1a.463.463,0,0,1-.92,0Zm-2.454,0a.463.463,0,0,1,.92,0v7.1a.463.463,0,0,1-.92,0Zm-2.455,0a.463.463,0,0,1,.92,0v7.1a.463.463,0,0,1-.92,0Zm-2.454,0a.463.463,0,0,1,.92,0v7.1a.463.463,0,0,1-.92,0Z" transform="translate(0)" fill="#e3170a"/>
  </g>
</svg>
