<svg id="trash-svgrepo-com" xmlns="http://www.w3.org/2000/svg" width="18.579" height="26.252" viewBox="0 0 18.579 26.252">
  <path id="Path_334" data-name="Path 334" d="M21.314,3.094H18.593a.832.832,0,0,0,.016-.087A3.01,3.01,0,0,0,15.6,0H12.454A3.01,3.01,0,0,0,9.448,3.006a.8.8,0,0,0,.018.087H7.315a2.291,2.291,0,0,0-2.29,2.29v.891H23.6V5.384A2.287,2.287,0,0,0,21.314,3.094ZM10.975,3.006a1.482,1.482,0,0,1,1.48-1.48H15.6a1.482,1.482,0,0,1,1.48,1.48c0,.031.015.057.017.087H10.957A.836.836,0,0,0,10.975,3.006ZM5.026,23.962a2.291,2.291,0,0,0,2.29,2.29h14a2.291,2.291,0,0,0,2.29-2.29V7.8H5.026ZM19.659,10.475a.763.763,0,1,1,1.527,0V23.738a.763.763,0,1,1-1.527,0Zm-4.071,0a.763.763,0,1,1,1.527,0V23.738a.763.763,0,1,1-1.527,0Zm-4.073,0a.763.763,0,1,1,1.527,0V23.738a.763.763,0,1,1-1.527,0Zm-4.071,0a.763.763,0,1,1,1.527,0V23.738a.763.763,0,1,1-1.527,0Z" transform="translate(-5.025 0)"/>
</svg>
