<svg xmlns="http://www.w3.org/2000/svg" width="24.456" height="26.364" viewBox="0 0 24.456 26.364">
  <g id="Component_32_15" data-name="Component 32 – 15" transform="translate(0 0.5)">
    <path id="user-svgrepo-com" d="M22.022,15.708l-3.5-1.749a.963.963,0,0,1-.535-.866V11.855c.084-.1.172-.219.263-.348a8.382,8.382,0,0,0,1.082-2.124,1.453,1.453,0,0,0,.852-1.325V6.593a1.461,1.461,0,0,0-.366-.961V3.683a3.283,3.283,0,0,0-.766-2.39A4.61,4.61,0,0,0,15.424,0,4.611,4.611,0,0,0,11.8,1.293a3.284,3.284,0,0,0-.766,2.39V5.631a1.461,1.461,0,0,0-.366.961V8.058A1.456,1.456,0,0,0,11.211,9.2a7.687,7.687,0,0,0,1.283,2.651v1.212a.968.968,0,0,1-.5.85L8.722,15.691A3.3,3.3,0,0,0,7,18.592v1.186c0,1.738,5.51,2.2,8.424,2.2s8.424-.459,8.424-2.2V18.663A3.286,3.286,0,0,0,22.022,15.708Z" transform="translate(-7 1.694)" fill="#fff"/>
    <path id="user-svgrepo-com-2" data-name="user-svgrepo-com" d="M24.338,18.131,20.3,16.112a1.112,1.112,0,0,1-.618-1V13.683c.1-.118.2-.253.3-.4a9.675,9.675,0,0,0,1.249-2.451A1.677,1.677,0,0,0,22.218,9.3V7.609A1.686,1.686,0,0,0,21.8,6.5V4.251a3.79,3.79,0,0,0-.884-2.758A5.321,5.321,0,0,0,16.723,0a5.322,5.322,0,0,0-4.188,1.492,3.79,3.79,0,0,0-.884,2.759V6.5a1.686,1.686,0,0,0-.423,1.11V9.3a1.681,1.681,0,0,0,.633,1.314,8.872,8.872,0,0,0,1.481,3.059v1.4a1.117,1.117,0,0,1-.582.981L8.988,18.11A3.812,3.812,0,0,0,7,21.459v1.369c0,2.006,6.36,2.536,9.723,2.536s9.723-.53,9.723-2.536V21.541A3.793,3.793,0,0,0,24.338,18.131Z" transform="translate(-2.49)" fill="#fff" stroke="#f4f4f4" stroke-width="1"/>
  </g>
</svg>
