<svg xmlns="http://www.w3.org/2000/svg" width="14.753" height="8.753" viewBox="0 0 14.753 8.753">
  <g id="view-svgrepo-com" transform="translate(0 -16.43)">
    <g id="Group_284" data-name="Group 284" transform="translate(0 16.43)">
      <path id="Path_338" data-name="Path 338" d="M14.489,20.469c-.129-.165-3.2-4.039-7.113-4.039S.392,20.3.263,20.469L0,20.806l.263.337c.129.165,3.2,4.039,7.113,4.039s6.984-3.874,7.113-4.039l.263-.337ZM7.377,24.087c-2.751,0-5.153-2.382-5.961-3.281.808-.9,3.209-3.281,5.961-3.281s5.153,2.382,5.96,3.281C12.529,21.705,10.128,24.087,7.377,24.087Z" transform="translate(0 -16.43)"/>
      <path id="Path_339" data-name="Path 339" d="M26.979,23.983a3,3,0,1,0,3,3A3,3,0,0,0,26.979,23.983Zm0,4.9a1.9,1.9,0,1,1,1.9-1.9A1.9,1.9,0,0,1,26.979,28.882Z" transform="translate(-19.602 -22.604)"/>
    </g>
  </g>
</svg>
