<svg id="warning-svgrepo-com" xmlns="http://www.w3.org/2000/svg" width="22.513" height="20.58" viewBox="0 0 22.513 20.58">
  <g id="Group_358" data-name="Group 358">
    <path id="Path_380" data-name="Path 380" d="M219.382,333.382a1.157,1.157,0,0,0,0,2.314,1.157,1.157,0,0,0,0-2.314Z" transform="translate(-208.126 -318.92)" fill="#ffb004"/>
    <path id="Path_381" data-name="Path 381" d="M21.965,39.445a3.951,3.951,0,0,0,.009-4L14.727,22.9a3.993,3.993,0,0,0-6.933,0L.538,35.455a4.008,4.008,0,0,0,3.471,6.007H18.485A3.985,3.985,0,0,0,21.965,39.445Zm-1.573-.907a2.187,2.187,0,0,1-1.911,1.106H4a2.157,2.157,0,0,1-1.888-1.083,2.19,2.19,0,0,1,0-2.208l7.257-12.56a2.179,2.179,0,0,1,3.786,0l7.252,12.56A2.161,2.161,0,0,1,20.391,38.538Z" transform="translate(0 -20.882)" fill="#ffb004"/>
    <path id="Path_382" data-name="Path 382" d="M218.618,157.209a1.258,1.258,0,0,0-.893,1.263c.028.366.051.736.079,1.1.079,1.393.157,2.758.236,4.151a.848.848,0,0,0,.865.815.865.865,0,0,0,.865-.842c0-.287,0-.551.028-.842.051-.893.106-1.786.157-2.68.028-.578.079-1.157.106-1.735a1.429,1.429,0,0,0-.106-.578A1.16,1.16,0,0,0,218.618,157.209Z" transform="translate(-207.649 -150.869)" fill="#ffb004"/>
  </g>
</svg>
