<svg xmlns="http://www.w3.org/2000/svg" width="14.43" height="16.491" viewBox="0 0 14.43 16.491">
  <g id="web-app" transform="translate(-5 -4)">
    <g id="activity" transform="translate(5 4)">
      <path id="Shape" d="M11.184,19.46a1.031,1.031,0,1,1-2.061,0V8.123a1.031,1.031,0,1,1,2.061,0Zm-4.123,0A1.031,1.031,0,1,1,5,19.46V12.246a1.031,1.031,0,1,1,2.061,0Zm6.184,0V10.184a1.031,1.031,0,0,1,2.061,0V19.46a1.031,1.031,0,0,1-2.061,0Zm4.123-14.43a1.031,1.031,0,1,1,2.061,0V19.46a1.031,1.031,0,1,1-2.061,0Z" transform="translate(-5 -4)" fill-rule="evenodd"/>
    </g>
  </g>
</svg>
