<svg xmlns="http://www.w3.org/2000/svg" width="45" height="45" viewBox="0 0 45 45">
  <g id="world-web-svgrepo-com" transform="translate(0 -0.008)">
    <path id="Path_270" data-name="Path 270" d="M23.652.038a2.556,2.556,0,0,0-.5-.013C22.935.019,22.718.008,22.5.008c-.24,0-.478.011-.716.019A2.557,2.557,0,0,0,21.2.049a22.5,22.5,0,0,0-.066,44.913,2.522,2.522,0,0,0,.441.045c.07,0,.138-.013.208-.018.24.008.479.018.721.018.219,0,.436-.01.654-.017.062,0,.125.017.188.017a2.527,2.527,0,0,0,.274-.029A22.5,22.5,0,0,0,23.652.038ZM35.026,10.393a27.471,27.471,0,0,1-3.588.661,38.921,38.921,0,0,0-3.3-5.039A17.471,17.471,0,0,1,35.026,10.393ZM29.4,25.034a18.819,18.819,0,0,1-.99,3.507c-1.737-.1-3.7-.145-5.935-.12s-4.191.111-5.921.237a18.843,18.843,0,0,1-1.032-3.624ZM15.518,19.98a18.871,18.871,0,0,1,1.067-3.7c1.721.124,3.671.207,5.884.234q.649.008,1.268.008c1.706,0,3.244-.045,4.638-.123a18.738,18.738,0,0,1,1.019,3.58Zm6.938-12.9a38.644,38.644,0,0,1,3.33,4.367c-1,.024-2.083.031-3.255.017-1.211-.014-2.325-.047-3.355-.093A38.74,38.74,0,0,1,22.456,7.076ZM16.742,6.06A38.9,38.9,0,0,0,13.56,10.9a32.051,32.051,0,0,1-3.474-.629A17.46,17.46,0,0,1,16.742,6.06ZM6.964,14.611a26.031,26.031,0,0,0,4.46,1.084,22.68,22.68,0,0,0-1.012,4.285H5.259A17.3,17.3,0,0,1,6.964,14.611Zm-1.7,10.423h5.153a22.614,22.614,0,0,0,.987,4.211,25.818,25.818,0,0,0-4.467,1.092A17.292,17.292,0,0,1,5.259,25.034Zm4.768,9.646a31.655,31.655,0,0,1,3.493-.639,38.926,38.926,0,0,0,3.223,4.914A17.474,17.474,0,0,1,10.027,34.681Zm12.425,3.264a38.269,38.269,0,0,1-3.337-4.372c1.048-.047,2.181-.082,3.416-.1,1.192-.015,2.289-.007,3.3.018A38.648,38.648,0,0,1,22.452,37.945ZM28.137,39a38.806,38.806,0,0,0,3.342-5.115,27.057,27.057,0,0,1,3.606.671A17.452,17.452,0,0,1,28.137,39Zm9.988-8.782a23.537,23.537,0,0,0-4.555-1.141,22.482,22.482,0,0,0,.93-4.043h5.24A17.259,17.259,0,0,1,38.125,30.219ZM39.741,19.98H34.5a22.607,22.607,0,0,0-.954-4.115,23.675,23.675,0,0,0,4.546-1.136A17.279,17.279,0,0,1,39.741,19.98Z" fill="#010002"/>
  </g>
</svg>
