<svg id="XMLID_2_" xmlns="http://www.w3.org/2000/svg" width="211" height="211" viewBox="0 0 211 211">
  <path id="XMLID_4_" d="M287.955,0H249.591a9.591,9.591,0,0,0,0,19.182h28.773V47.955a9.591,9.591,0,1,0,19.182,0V9.591A9.591,9.591,0,0,0,287.955,0Z" transform="translate(-86.545)" fill="#fff"/>
  <path id="XMLID_5_" d="M170.746,145.325a9.591,9.591,0,0,0-15.4,0l-30.39,40.931L75.022,114.132a9.591,9.591,0,0,0-15.771,0L1.705,197.253A9.588,9.588,0,0,0,0,202.712v38.364a9.591,9.591,0,0,0,9.591,9.591H47.955a9.591,9.591,0,1,0,0-19.182H19.182V205.708L67.136,136.44l49.66,71.731a9.591,9.591,0,0,0,15.586.258l30.663-41.3,28.773,38.752v25.6H163.045a9.591,9.591,0,1,0,0,19.182h38.364A9.591,9.591,0,0,0,211,241.076V202.712a9.591,9.591,0,0,0-1.891-5.718Z" transform="translate(0 -39.667)" fill="#fff"/>
  <path id="XMLID_6_" d="M9.591,57.545a9.591,9.591,0,0,0,9.591-9.591V19.182H47.955A9.591,9.591,0,1,0,47.955,0H9.591A9.591,9.591,0,0,0,0,9.591V47.955A9.591,9.591,0,0,0,9.591,57.545Z" fill="#fff"/>
  <path id="XMLID_7_" d="M176.97,113.939A31.97,31.97,0,1,0,145,81.97,32.006,32.006,0,0,0,176.97,113.939Zm0-44.758A12.788,12.788,0,1,1,164.182,81.97,12.8,12.8,0,0,1,176.97,69.182Z" transform="translate(-52.288 -18.03)" fill="#fff"/>
</svg>
